<svg id="Layer_1" data-name="Layer 1" xmlns="http://www.w3.org/2000/svg" viewBox="0 0 1745.76 1184.5"><defs><style>.cls-1{fill:#fff;}.cls-12,.cls-15,.cls-19,.cls-2,.cls-21,.cls-23,.cls-4,.cls-5,.cls-6,.cls-7,.cls-8{fill:none;}.cls-2,.cls-4{stroke:#c7eef5;}.cls-12,.cls-15,.cls-2,.cls-23,.cls-8{stroke-miterlimit:10;}.cls-2{stroke-width:6px;}.cls-3{fill:#55bdca;}.cls-19,.cls-21,.cls-4,.cls-5,.cls-6,.cls-7{stroke-linecap:round;stroke-linejoin:round;}.cls-4{stroke-width:3px;}.cls-5,.cls-8{stroke:#fff;}.cls-5{stroke-width:1.22px;}.cls-6{stroke:#55bdca;stroke-width:5px;}.cls-19,.cls-21,.cls-7{stroke:#1b172c;}.cls-7{stroke-width:5.46px;}.cls-8{stroke-width:1.88px;}.cls-9{fill:#ffbd9a;}.cls-10{fill:#4aa8af;}.cls-11{fill:#57d3dd;}.cls-12{stroke:#55382c;stroke-width:0.84px;}.cls-13{fill:#ffc9bd;}.cls-14{fill:#f07c41;}.cls-15{stroke:#9b2905;stroke-width:0.73px;}.cls-16{fill:#954b55;}.cls-17{fill:#ffb1a7;}.cls-18{fill:#1b172c;}.cls-19{stroke-width:0.56px;}.cls-20{fill:#793641;}.cls-21{stroke-width:0.71px;}.cls-22{fill:#022249;}.cls-23{stroke:#55382e;stroke-width:1.15px;}</style></defs><title>font_bg</title><rect class="cls-1" x="86.67" y="7.59" width="799.6" height="569.11" rx="2.36"/><line class="cls-2" x1="86.95" y1="197.78" x2="885.95" y2="197.78"/><line class="cls-2" x1="86.95" y1="375.8" x2="885.95" y2="376.5"/><circle class="cls-3" cx="219.81" cy="115.3" r="48.38"/><circle class="cls-3" cx="2265.86" cy="1186.84" r="48.38" transform="translate(-1440.83 2231.83) rotate(-77.16)"/><circle class="cls-3" cx="219.81" cy="463.82" r="48.38"/><line class="cls-4" x1="297.45" y1="94.36" x2="729.96" y2="94.36"/><line class="cls-4" x1="297.45" y1="128.21" x2="361.61" y2="128.21"/><line class="cls-4" x1="297.45" y1="267.19" x2="729.96" y2="267.19"/><line class="cls-4" x1="297.45" y1="301.04" x2="526.67" y2="301.04"/><line class="cls-4" x1="297.45" y1="446.48" x2="391.96" y2="446.48"/><line class="cls-4" x1="297.45" y1="480.32" x2="729.96" y2="480.32"/><polyline class="cls-5" points="200.41 120.4 214.12 129.75 239.21 100.85"/><polyline class="cls-5" points="200.41 291.02 214.12 300.37 239.21 271.48"/><polyline class="cls-5" points="200.41 468.92 214.12 478.27 239.21 449.38"/><circle class="cls-6" cx="1482.39" cy="101.87" r="99.37"/><polyline class="cls-6" points="1482.38 59.39 1482.38 101.87 1549.48 101.87"/><path class="cls-3" d="M3565.34,1275.36h118a28.53,28.53,0,0,0,28.53-28.53h0a28.53,28.53,0,0,0-28.53-28.53h-118a28.53,28.53,0,0,0-28.53,28.53h0A28.53,28.53,0,0,0,3565.34,1275.36Z" transform="translate(-2046.05 -900.5)"/><path class="cls-1" d="M3649.39,1246.91a7.62,7.62,0,1,0,7.64-7.59A7.63,7.63,0,0,0,3649.39,1246.91Z" transform="translate(-2046.05 -900.5)"/><path class="cls-1" d="M3616.74,1246.81a7.61,7.61,0,1,0,7.63-7.59A7.6,7.6,0,0,0,3616.74,1246.81Z" transform="translate(-2046.05 -900.5)"/><path class="cls-1" d="M3584.08,1246.71a7.62,7.62,0,1,0,7.64-7.59A7.61,7.61,0,0,0,3584.08,1246.71Z" transform="translate(-2046.05 -900.5)"/><path class="cls-7" d="M3199.11,1761.8H3347.9c83.62,0,142.11-53.93,156-136.39l36.91-219.18" transform="translate(-2046.05 -900.5)"/><path class="cls-8" d="M3200.8,2084.42,3267.56,1775a77.52,77.52,0,0,1,75.7-60.83h0a77.5,77.5,0,0,1,76,62.24l60.59,308" transform="translate(-2046.05 -900.5)"/><polygon class="cls-9" points="856.01 1139.52 890.5 1029.97 945.36 1027.06 910.95 1144.61 858.04 1144.95 856.01 1139.52"/><path d="M2964.67,2022.4s-45.37,18.66-66.68-10.76l-93.4,56.75,174.14-1.13Z" transform="translate(-2046.05 -900.5)"/><rect class="cls-1" x="2804.65" y="2067.82" width="174.14" height="16.04" transform="matrix(1, -0.01, 0.01, 1, -2059.36, -881.83)"/><path class="cls-1" d="M2899.13,2036.46a3,3,0,0,1-1.27-1,63.77,63.77,0,0,0-14.36-14,2.85,2.85,0,0,1-.85-4.06,3.2,3.2,0,0,1,4.26-.81c.33.2,8.1,5.18,15.93,15.42a2.85,2.85,0,0,1-.68,4.1A3.22,3.22,0,0,1,2899.13,2036.46Z" transform="translate(-2046.05 -900.5)"/><path class="cls-1" d="M2884.14,2044a3,3,0,0,1-1.27-1,63.38,63.38,0,0,0-14.35-14,2.83,2.83,0,0,1-.85-4.06,3.2,3.2,0,0,1,4.26-.82,68.23,68.23,0,0,1,15.92,15.43,2.83,2.83,0,0,1-.68,4.09A3.2,3.2,0,0,1,2884.14,2044Z" transform="translate(-2046.05 -900.5)"/><path class="cls-1" d="M2869.16,2051.46a3.07,3.07,0,0,1-1.27-1,63.29,63.29,0,0,0-14.36-14,2.85,2.85,0,0,1-.85-4.06,3.19,3.19,0,0,1,4.26-.82,68.37,68.37,0,0,1,15.93,15.43,2.84,2.84,0,0,1-.68,4.09A3.23,3.23,0,0,1,2869.16,2051.46Z" transform="translate(-2046.05 -900.5)"/><path class="cls-10" d="M3095.32,1613.16l-47.68,3a79.11,79.11,0,0,0-71.2,57.7l-74.73,287.81,103.55-9.63,83.47-252.82Z" transform="translate(-2046.05 -900.5)"/><polygon class="cls-3" points="967.27 1074.62 842.23 1074.62 850.9 1028.52 975.94 1028.52 967.27 1074.62"/><polygon class="cls-9" points="1056 1139.52 1057.59 1031.43 1112.45 1028.52 1110.94 1144.61 1058.03 1144.95 1056 1139.52"/><path d="M3164.66,2022.4s-45.37,18.66-66.68-10.76l-93.4,56.75,174.14-1.13Z" transform="translate(-2046.05 -900.5)"/><rect class="cls-1" x="3004.64" y="2067.82" width="174.14" height="16.04" transform="translate(-2059.35 -880.55) rotate(-0.37)"/><path class="cls-1" d="M3099.12,2036.46a3.08,3.08,0,0,1-1.28-1,63.63,63.63,0,0,0-14.35-14,2.85,2.85,0,0,1-.85-4.06,3.2,3.2,0,0,1,4.26-.81c.33.2,8.1,5.18,15.93,15.42a2.85,2.85,0,0,1-.68,4.1A3.22,3.22,0,0,1,3099.12,2036.46Z" transform="translate(-2046.05 -900.5)"/><path class="cls-1" d="M3084.13,2044a3,3,0,0,1-1.27-1,63.29,63.29,0,0,0-14.36-14,2.84,2.84,0,0,1-.84-4.06,3.18,3.18,0,0,1,4.25-.82,68.16,68.16,0,0,1,15.93,15.43,2.84,2.84,0,0,1-.68,4.09A3.2,3.2,0,0,1,3084.13,2044Z" transform="translate(-2046.05 -900.5)"/><path class="cls-1" d="M3069.15,2051.46a3.1,3.1,0,0,1-1.28-1,63.15,63.15,0,0,0-14.35-14,2.85,2.85,0,0,1-.85-4.06,3.18,3.18,0,0,1,4.26-.82,68.37,68.37,0,0,1,15.93,15.43,2.84,2.84,0,0,1-.69,4.09A3.21,3.21,0,0,1,3069.15,2051.46Z" transform="translate(-2046.05 -900.5)"/><path class="cls-3" d="M3388.62,1608l-149.17,6-111.4,2.28c-32.51,0-59,19.6-59.48,52.11-1.49,99.95,6.24,307.68,10.94,306.74,6.34-1.27,97.65,0,97.65,0l9.28-227L3258,1756c17.64.14,69.17,3.47,84.89-4.5C3375.43,1735,3417,1696.33,3388.62,1608Z" transform="translate(-2046.05 -900.5)"/><rect class="cls-11" x="1016.75" y="1028.52" width="125.05" height="46.1"/><line class="cls-12" x1="1140.39" y1="847.66" x2="1138.66" y2="796.83"/><path class="cls-13" d="M2955.82,1430.76l-59.94-30s-48.92-3.61-78.64,2.85a5.65,5.65,0,0,0-4.34,6.83h0a5.6,5.6,0,0,0,6.06,4.26l27.44-3-14.77,10a6.28,6.28,0,0,0,.8,10.85h0a6.19,6.19,0,0,0,5.71-.13c8.21-4.54,34-16.37,59.17-2.22l-23.47,10.55a7.44,7.44,0,0,0-2.46,11.79h0a7.46,7.46,0,0,0,6.47,2.38l21.84-2.83s25.69,10.46,49.47-1Z" transform="translate(-2046.05 -900.5)"/><path class="cls-14" d="M3151.5,1353.28c-19,46.5-46.15,139.12-46.15,139.12l-150-70.66-19.84,51.51,127.28,86.91,139.23-5.81,10.32-108.89Z" transform="translate(-2046.05 -900.5)"/><path class="cls-14" d="M3176.55,1323c-10.06,7.59-19.58,17.57-25.05,30.33l-9,259.88s159.5,33.59,246.13-5.12c0,0-2.45-217.65-51.79-275.25,0,0-15.55-30.6-94.63-30.74C3218.68,1302,3195.33,1308.79,3176.55,1323Z" transform="translate(-2046.05 -900.5)"/><line class="cls-15" x1="1116.48" y1="499.28" x2="1127.98" y2="681.75"/><path class="cls-13" d="M3008.29,1550.53l-2.19-44.8s-16.06-33.54-30.7-34c-10.75-.35-24.3,6.94-31.5,14.58a7.08,7.08,0,0,0,1.86,11.21c7,3.53,17.6,9.83,23,17.66,0,0-7.08,36.15,4.88,51,6.08,7.57,41.89,16.06,41.89,16.06Z" transform="translate(-2046.05 -900.5)"/><path class="cls-14" d="M3251.9,1345.15l-28.75,182.19L3007,1536.71v76.45l232.45-5.62c8.87.51,15.61-2.34,20.42-7.32l2.36,1.12s62.95,1.06,80.64-213.89Z" transform="translate(-2046.05 -900.5)"/><polyline class="cls-15" points="981.09 635.34 1177.15 626.48 1200.47 478.72"/><line class="cls-15" x1="1177.15" y1="626.48" x2="1207.08" y2="635.34"/><path class="cls-15" d="M3338.5,1445l-21.8,97.29a115.9,115.9,0,0,1-37.85,62.79l-9.77,7.73" transform="translate(-2046.05 -900.5)"/><path class="cls-16" d="M3137.57,1135.56s5.39,25.71,0,41.37-22.55,23-14.84,63.92-.51,41.87-2.37,53.43c0,0,164.22,15.46,246.46-26.71,0,0-13.91-23.87-29.31-50.35s-21.19-70-21.19-70l-63-24.1Z" transform="translate(-2046.05 -900.5)"/><path class="cls-16" d="M3176.56,1105.21c-1.87-.58,5.43-11.4,7.3-12,29.23-9.34,91.68-21.69,123.44,29.65,23.34,37.74-.09,108.7-49.14,130.18-46.72,20.46-38.76-134.43-38.76-134.43Z" transform="translate(-2046.05 -900.5)"/><path class="cls-17" d="M3188.5,1201.32a23.18,23.18,0,1,1-25.78-20.25A23.17,23.17,0,0,1,3188.5,1201.32Z" transform="translate(-2046.05 -900.5)"/><path class="cls-13" d="M3196.48,1263.25l5.73,50.2c2,17.63,13.9,25.83,31.23,23.75h0c14.8-1.78,27.79-11.09,27.86-26l-12.82-78.56Z" transform="translate(-2046.05 -900.5)"/><path class="cls-18" d="M3200,1294.28c35.21-3,53.32-53.43,53.32-53.43l-57.55,17.27Z" transform="translate(-2046.05 -900.5)"/><path class="cls-13" d="M3212.21,1270.62h0c-29.74,1.58-55.49-20.61-57.6-44.86l-4.62-57.24a56.53,56.53,0,0,1,49.58-61h0c31-3.73,64.59,17.73,68.32,48.73l3.22,46.08C3273.61,1237.94,3250.34,1267.71,3212.21,1270.62Z" transform="translate(-2046.05 -900.5)"/><path class="cls-16" d="M3243.59,1148.86c-14.12,21.09,8.94,51,8.94,51l43.57-52.68S3252,1136.37,3243.59,1148.86Z" transform="translate(-2046.05 -900.5)"/><path class="cls-13" d="M3298.56,1194.34a23.18,23.18,0,1,1-25.78-20.25A23.18,23.18,0,0,1,3298.56,1194.34Z" transform="translate(-2046.05 -900.5)"/><path class="cls-19" d="M3268.32,1204.92s-2-16.69,14.27-16" transform="translate(-2046.05 -900.5)"/><polyline class="cls-19" points="1136.81 316.59 1136.36 323.41 1143.1 323.42"/><path class="cls-20" d="M3216.37,1175.37s-12.9-.51-12.85,3.64c0,0,.13,2.81,11.38,3.08s14.13-.46,15-3.12S3222.4,1175.24,3216.37,1175.37Z" transform="translate(-2046.05 -900.5)"/><path class="cls-20" d="M3164.91,1177.05s10.58-1.13,11.61,2.74c0,0,.62,2.62-8.64,3.45s-12.34,0-13.31-2.13C3153.47,1178.73,3159.87,1177.25,3164.91,1177.05Z" transform="translate(-2046.05 -900.5)"/><path class="cls-21" d="M3204.4,1202.42s5.75-8.21,16.4-.28" transform="translate(-2046.05 -900.5)"/><path class="cls-21" d="M3160.32,1204.09s5.12-8.15,12.25-.54" transform="translate(-2046.05 -900.5)"/><path class="cls-21" d="M3193.55,1236.06s8.79,2.08,15.93-6.77" transform="translate(-2046.05 -900.5)"/><path class="cls-16" d="M3183.86,1093.21s-63.51,22.93-50.35,46.83c9.75,17.71,73.67,28.69,134.38,16.18,0,0,27.71-22.5-6.59-45.82C3261.3,1110.4,3242.88,1084.38,3183.86,1093.21Z" transform="translate(-2046.05 -900.5)"/><path class="cls-13" d="M3184.71,1317.43s18.11-11.71,44.79-15.38c0,0,31.86-2,58.53,4.36,0,0-1.75,28.31-55.38,34.57-10.54,1.23-21.29,1-31.5-1.92S3188.48,1329,3184.71,1317.43Z" transform="translate(-2046.05 -900.5)"/><path class="cls-22" d="M3005.28,1600.53h-182V1580h182a10.26,10.26,0,0,1,10.27,10.26h0A10.27,10.27,0,0,1,3005.28,1600.53Z" transform="translate(-2046.05 -900.5)"/><path class="cls-22" d="M2847.24,1600.53H2586a31,31,0,0,1-29.81-22.64l-51.53-185.15a10.66,10.66,0,0,1,10.27-13.52h264.38a12.69,12.69,0,0,1,12.29,9.48Z" transform="translate(-2046.05 -900.5)"/><path class="cls-1" d="M2685.15,1494.13a22.82,22.82,0,1,1-22.82-22.81A22.82,22.82,0,0,1,2685.15,1494.13Z" transform="translate(-2046.05 -900.5)"/><line class="cls-23" x1="733.66" y1="724.4" x2="733.66" y2="1183.92"/><rect class="cls-1" x="335.8" y="700.03" width="776.36" height="48.75"/><line class="cls-23" x1="1745.76" y1="1183.92" y2="1183.92"/></svg>