<svg id="Layer_2" data-name="Layer 2" xmlns="http://www.w3.org/2000/svg" xmlns:xlink="http://www.w3.org/1999/xlink" viewBox="0 0 3840 2160">
  <defs>
    <style>
      .cls-1, .cls-2, .cls-3 {
        fill-rule: evenodd;
      }

      .cls-1 {
        fill: url(#linear-gradient);
      }

      .cls-2 {
        fill: #b9e3ee;
      }

      .cls-3 {
        fill: #fff;
      }
    </style>
    <linearGradient id="linear-gradient" x1="2466.04" y1="-47.76" x2="3064.35" y2="2630.31" gradientUnits="userSpaceOnUse">
      <stop offset="0" stop-color="#54bdc9"/>
      <stop offset="0.27" stop-color="#88d1dc"/>
      <stop offset="0.79" stop-color="#b9e3ee"/>
      <stop offset="1" stop-color="#fff"/>
    </linearGradient>
  </defs>
  <title>wall_bg1</title>
  <path class="cls-1" d="M4230.81-6c-34.55,0-62.55,26.67-62.55,59.56s28,59.55,62.55,59.55,62.54-26.66,62.54-59.55S4265.34-6,4230.81-6Zm323.41,1469.79c-80.66-180.8-269.28-308.43-487.7-308.43h0c-123.14,0-223.87-95.93-223.87-213.19,0-58.63,25.18-111.92,65.76-150.56S4005,729,4066.52,729H4336c128,0,232.76-99.74,232.76-221.64,0-61-26.19-116.37-68.37-156.54S4400,285.69,4336,285.69H3995.24c-49.84,0-90.62-38.83-90.62-86.29,0-23.73,10.2-45.3,26.62-60.94a92.65,92.65,0,0,1,64-25.35h60.06c34.4,0,62.54-26.8,62.54-59.55a58,58,0,0,0-18.37-42.06A63.92,63.92,0,0,0,4055.3-6H3661.19c-83,0-92.24,93.37-301.9,93.37H2755.2c-44.89,0-81.61,35-81.61,77.71,0,21.37,9.18,40.8,24,54.88a83.45,83.45,0,0,0,57.64,22.83h78.37c65,0,118.24,50.68,118.24,112.6,0,31-13.3,59.11-34.73,79.52A120.93,120.93,0,0,1,2833.57,468H2715.63c-318.49,0-363.48,79.26-419.26,236.9s-345.49,170.35-345.49,170.35H1554.75c-98,0-178.19,76.35-178.19,169.68,0,46.66,20,89.08,52.34,119.84a182.22,182.22,0,0,0,125.85,49.84h20.4c94.26,0,171.39,73.45,171.39,163.21,0,44.88-19.28,85.68-50.35,115.27a175.24,175.24,0,0,1-121,47.94H1241c-179.85,0-327,140.12-327,311.37,0,85.63,36.78,163.47,96,219.91s141,91.46,230.94,91.46H4066.51c291.23,0,529.49-226.88,529.49-504.2A479.06,479.06,0,0,0,4554.22,1463.79Z"/>
  <path class="cls-2" d="M1808.72,531.21a5.88,5.88,0,0,0-11.75,0V545h-13.81a5.88,5.88,0,0,0,0,11.75H1797v13.81a5.88,5.88,0,1,0,11.75,0V556.77h13.81a5.88,5.88,0,1,0,0-11.75h-13.81Z"/>
  <path class="cls-3" d="M1534.42,1745a5.88,5.88,0,0,0-11.75,0v13.81h-13.81a5.88,5.88,0,0,0,0,11.75h13.81v13.81a5.88,5.88,0,1,0,11.75,0v-13.81h13.81a5.88,5.88,0,0,0,0-11.75h-13.81Z"/>
  <path class="cls-2" d="M784.34,1313.85a5.88,5.88,0,1,0-11.75,0v13.81H758.78a5.88,5.88,0,0,0,0,11.75h13.81v13.81a5.88,5.88,0,0,0,11.75,0v-13.81h13.82a5.88,5.88,0,0,0,0-11.75H784.34Z"/>
  <path class="cls-3" d="M3037.44,198.48a5.87,5.87,0,1,0-11.74,0v13.81h-13.81a5.88,5.88,0,0,0,0,11.75h13.81v13.81a5.87,5.87,0,1,0,11.74,0V224h13.82a5.88,5.88,0,0,0,0-11.75h-13.82Z"/>
</svg>
