<svg id="Layer_1" enable-background="new 0 0 512 512" height="512" viewBox="0 0 512 512" width="512" xmlns="http://www.w3.org/2000/svg"><path d="m342.516 351.827c12.383-32.993 44.234-56.536 81.482-56.536 3.636 0 7.219.228 10.739.663v-108.731h-164.305c-3.998 0-7.251-3.264-7.251-7.276v-68.248h-252.879c-5.666-.001-10.302 4.638-10.302 10.307v229.821z" fill="#c7eefd"/><path d="m41.722 351.827v-229.821c0-5.669 4.636-10.308 10.302-10.308h-41.722c-5.666 0-10.302 4.639-10.302 10.308v229.821z" fill="#98e5fb"/><path d="m336.994 382.341c0-11.109 2.094-21.737 5.902-31.514h-342.896v61.512c0 5.669 4.636 10.308 10.302 10.308h336.599c-6.323-12.059-9.907-25.771-9.907-40.306z" fill="#8c9ba7"/><path d="m41.722 412.338v-61.512h-41.722v61.512c0 5.669 4.636 10.308 10.302 10.308h41.722c-5.666 0-10.302-4.638-10.302-10.308z" fill="#798b97"/><path d="m335.994 382.341c0-1.504.038-2.999.113-4.485h-206.592c-4.142 0-7.5 3.358-7.5 7.5s3.358 7.5 7.5 7.5h207.106c-.41-3.448-.627-6.956-.627-10.515z" fill="#5a5a5a"/><path d="m164.564 180.757c0-2.834 1.994-3.972 4.432-2.528l96.745 57.311c2.438 1.444 2.438 3.807 0 5.251l-96.744 57.307c-2.438 1.444-4.433.307-4.433-2.528z" fill="#fd646f"/><path d="m164.564 180.757c0-2.834 1.994-3.972 4.432-2.528l96.745 57.311c2.438 1.444 2.438 3.807 0 5.251l-96.744 57.307c-2.438 1.444-4.433.307-4.433-2.528z" fill="#fd646f"/><path d="m197.28 194.984-28.284-16.755c-2.438-1.444-4.432-.307-4.432 2.528v114.813c0 2.834 1.994 3.972 4.433 2.528l28.284-16.754v-86.36z" fill="#fc4755"/><circle cx="27.527" cy="385.872" fill="#fff" r="7.5"/><circle cx="59.463" cy="385.872" fill="#fde35a" r="7.5"/><circle cx="91.398" cy="385.872" fill="#fff" r="7.5"/><ellipse cx="423.997" cy="382.341" fill="#fdd302" rx="88.003" ry="88.05"/><path d="m368.61 389.776c-.307.038-.618.064-.936.064-4.143 0-7.5-3.358-7.5-7.5s3.357-7.5 7.5-7.5c.318 0 .629.026.936.065 3.324-39.74 33.025-71.96 71.535-79.109-5.238-.973-10.629-1.505-16.148-1.505-48.603 0-88.003 39.42-88.003 88.05s39.4 88.05 88.003 88.05c5.519 0 10.91-.533 16.148-1.505-38.51-7.15-68.211-39.369-71.535-79.11z" fill="#f9c500"/><g fill="#ab5e2e"><path d="m432.468 374.276h-16.941c-.385 0-9.44-.101-9.44-8.885 0-2.337 0-9.449 9.44-9.449h28.624c4.142 0 7.5-3.358 7.5-7.5s-3.358-7.5-7.5-7.5h-12.653v-5.495c0-4.142-3.358-7.5-7.5-7.5s-7.5 3.358-7.5 7.5v5.495h-.971c-14.618 0-24.44 9.825-24.44 24.449 0 15.514 12.592 23.885 24.44 23.885h16.941c2.214 0 9.439.641 9.439 8.884 0 7.842-3.773 9.449-9.439 9.449h-29.501c-4.142 0-7.5 3.358-7.5 7.5s3.358 7.5 7.5 7.5h13.53v6.625c0 4.142 3.358 7.5 7.5 7.5s7.5-3.358 7.5-7.5v-6.625h.971c15.075 0 24.439-9.368 24.439-24.449 0-15.68-12.294-23.884-24.439-23.884z"/><circle cx="367.674" cy="382.341" r="7.5"/><circle cx="480.994" cy="382.341" r="7.5"/></g><path d="m460.398 41.609h-189.966c-4.538 0-8.251 3.724-8.251 8.275v130.062c0 4.551 3.713 8.276 8.251 8.276h189.966c4.538 0 8.251-3.725 8.251-8.276v-130.062c0-4.551-3.713-8.275-8.251-8.275z" fill="#62dafa"/><path d="m294.715 49.884c0-4.551 3.713-8.275 8.251-8.275h-32.534c-4.538 0-8.251 3.724-8.251 8.275v106.504l32.534-42.459z" fill="#01cffa"/><path d="m431.934 116.49c-1.383-1.805-3.646-1.805-5.028 0l-43.725 57.062 11.242 14.671h65.975c4.538 0 8.251-3.725 8.251-8.276v-15.542z" fill="#00c184"/><path d="m431.934 116.49c-1.383-1.805-3.646-1.805-5.028 0l-43.725 57.062 11.242 14.671h9.923l41.277-53.868z" fill="#07b17b"/><path d="m318.619 89.296c-1.382-1.806-3.646-1.806-5.028 0l-51.41 67.093v23.558c0 4.551 3.713 8.276 8.251 8.276h123.991z" fill="#00c184"/><path d="m294.768 179.946v-23.558l37.631-49.11-13.78-17.983c-1.382-1.806-3.646-1.806-5.028 0l-51.41 67.093v23.558c0 4.551 3.713 8.276 8.251 8.276h32.586c-4.538.001-8.25-3.724-8.25-8.276z" fill="#07b17b"/><ellipse cx="384.393" cy="86.427" fill="#fde35a" rx="21.041" ry="21.104"/></svg>