<?xml version="1.0" encoding="utf-8"?>
<!-- Generator: Adobe Illustrator 22.0.1, SVG Export Plug-In . SVG Version: 6.00 Build 0)  -->
<svg version="1.1" id="Layer_1" xmlns="http://www.w3.org/2000/svg" xmlns:xlink="http://www.w3.org/1999/xlink" x="0px" y="0px"
	 viewBox="0 0 4602.5 2115.2" style="enable-background:new 0 0 4602.5 2115.2;" xml:space="preserve">
<style type="text/css">
	.st0{fill:none;}
	.st1{clip-path:url(#SVGID_2_);}
	.st2{fill:url(#SVGID_3_);}
	.st3{fill:url(#SVGID_4_);}
	.st4{opacity:0.8;}
	.st5{fill:url(#SVGID_5_);}
	.st6{font-family:'Arial-BoldMT';}
	.st7{font-size:700px;}
	.st8{letter-spacing:-21;}
	.st9{font-size:100px;}
	.st10{letter-spacing:-56;}
</style>
<title>FireWork_txt</title>
<rect id="Artboard6" x="103.4" y="98.6" class="st0" width="1123.8" height="1876.3"/>
<g>
	<defs>
		<rect id="SVGID_1_" x="103.4" y="98.6" width="1123.8" height="1876.3"/>
	</defs>
	<clipPath id="SVGID_2_">
		<use xlink:href="#SVGID_1_"  style="overflow:visible;"/>
	</clipPath>
	<g class="st1">
		<g>
			
				<linearGradient id="SVGID_3_" gradientUnits="userSpaceOnUse" x1="1291.8575" y1="-861.2688" x2="1292.8575" y2="-861.2688" gradientTransform="matrix(18.15 -822.87 822.87 18.15 685920.625 1080303.375)">
				<stop  offset="0" style="stop-color:#FCCB52"/>
				<stop  offset="1" style="stop-color:#FCB410"/>
			</linearGradient>
			<path class="st2" d="M660.2,1789.6c0,0-518.5-5-551.2-540.1c0,0-28.6-380.7,368.3-542.2c0,0-119.2,56.4-87.1,189.5
				s248.2,162.7,296.2-3.4c37.7-130.5-121.9-200.2-108-358c13-148.3,67-296.5,417.9-437.1c0,0-204.1,172.7-73,359
				S1187,873,1216.9,1138.3C1234.9,1297,1215.9,1746,660.2,1789.6L660.2,1789.6z"/>
			
				<linearGradient id="SVGID_4_" gradientUnits="userSpaceOnUse" x1="1288.7672" y1="-859.2546" x2="1289.7672" y2="-859.2546" gradientTransform="matrix(402.09 233.66 -229.32 394.63 -714856.5 39242.6289)">
				<stop  offset="0" style="stop-color:#F99210;stop-opacity:0.8"/>
				<stop  offset="1" style="stop-color:#FCCB52;stop-opacity:0.8"/>
			</linearGradient>
			<path class="st3" d="M641.8,1789.6c0,0-379.8,7.2-519.9-409.9c0,0-87.8-330,186.8-567c0,0-82.7,418,229.8,385.5
				s604.7,226.5,410.2,460C948.6,1658.1,861.3,1780.9,641.8,1789.6L641.8,1789.6z"/>
			<g class="st4">
				
					<linearGradient id="SVGID_5_" gradientUnits="userSpaceOnUse" x1="1292.7024" y1="-858.5217" x2="1293.7024" y2="-858.5217" gradientTransform="matrix(-716.33 254.95 -254.95 -716.33 707970.4375 -943101.375)">
					<stop  offset="0" style="stop-color:#F98610"/>
					<stop  offset="1" style="stop-color:#FF005C"/>
				</linearGradient>
				<path class="st5" d="M349.4,1972.8c0,0-147-29.8-176.1-189.3s132.9-238.2,196-240.6s656,124.4,762-561.4
					c0,0,198.9,672.5-458,911.6C586.3,1924.7,480.4,1980.8,349.4,1972.8L349.4,1972.8z"/>
			</g>
		</g>
	</g>
</g>
<text transform="matrix(1 0 0 1 1467.6359 1310.4744)" class="st6 st7">Fi</text>
<text transform="matrix(1 0 0 1 2023.4259 1310.4744)" class="st6 st7 st8">r</text>
<text transform="matrix(1 0 0 1 2261.426 1310.4744)" class="st6 st7">e</text>
<text transform="matrix(1 0 0 1 2662.5261 1310.4744)" class="st6 st9"> </text>
<text transform="matrix(1 0 0 1 2693.5261 1310.4744)" class="st6 st7 st10">W</text>
<text transform="matrix(1 0 0 1 3343.126 1310.4744)" class="st6 st7">ork</text>
</svg>
