<?xml version="1.0" encoding="UTF-8" standalone="no"?><!DOCTYPE svg PUBLIC "-//W3C//DTD SVG 1.1//EN" "http://www.w3.org/Graphics/SVG/1.1/DTD/svg11.dtd"><svg width="100%" height="100%" viewBox="0 0 2359 3936" version="1.1" xmlns="http://www.w3.org/2000/svg" xmlns:xlink="http://www.w3.org/1999/xlink" xml:space="preserve" xmlns:serif="http://www.serif.com/" style="fill-rule:evenodd;clip-rule:evenodd;stroke-linejoin:round;stroke-miterlimit:2;"><rect id="Artboard6" x="0.283" y="0.091" width="2356.52" height="3934.48" style="fill:none;"/><clipPath id="_clip1"><rect x="0.283" y="0.091" width="2356.52" height="3934.48"/></clipPath><g clip-path="url(#_clip1)"><g><g><path d="M1167.72,3545.89c0,0 -1087.32,-10.45 -1155.87,-1132.57c0,0 -60.063,-798.349 772.289,-1136.87c0,0 -249.989,118.172 -182.682,397.251c67.307,279.08 520.309,341.141 620.96,-7.037c79.109,-273.657 -255.612,-419.709 -226.506,-750.657c27.35,-310.99 140.466,-621.732 876.353,-916.633c0,0 -427.993,362.19 -153.079,752.79c274.914,390.599 553.115,871.669 615.924,1428.15c37.56,332.775 -2.131,1274.2 -1167.39,1365.58Z" style="fill:url(#_Linear2);"/></g><path d="M1129.14,3545.87c0,0 -796.41,15.134 -1090.2,-859.597c0,0 -184.191,-691.88 391.593,-1188.95c0,0 -173.438,876.576 481.777,808.331c655.215,-68.244 1268.03,474.894 860.149,964.569c0,0 -182.95,257.513 -643.322,275.644Z" style="fill:url(#_Linear3);"/><g opacity="0.8"><path d="M516.04,3929.96c0,0 -308.211,-62.419 -369.189,-396.88c-60.979,-334.462 278.703,-499.528 411.048,-504.533c132.345,-5.005 1375.47,260.921 1597.63,-1177.17c0,0 417.021,1410.05 -960.456,1911.49c-182.342,66.378 -404.496,183.839 -679.037,167.088Z" style="fill:url(#_Linear4);"/></g></g></g><defs><linearGradient id="_Linear2" x1="0" y1="0" x2="1" y2="0" gradientUnits="userSpaceOnUse" gradientTransform="matrix(38.0662,-1725.47,1725.47,38.0662,1322.35,3218.48)"><stop offset="0" style="stop-color:#fccb52;stop-opacity:1"/><stop offset="1" style="stop-color:#fcb410;stop-opacity:1"/></linearGradient><linearGradient id="_Linear3" x1="0" y1="0" x2="1" y2="0" gradientUnits="userSpaceOnUse" gradientTransform="matrix(843.141,489.966,-480.869,827.487,578.087,2591.74)"><stop offset="0" style="stop-color:#f99210;stop-opacity:0.8"/><stop offset="1" style="stop-color:#fccb52;stop-opacity:0.8"/></linearGradient><linearGradient id="_Linear4" x1="0" y1="0" x2="1" y2="0" gradientUnits="userSpaceOnUse" gradientTransform="matrix(-1502.06,534.595,-534.595,-1502.06,1641.66,3105.46)"><stop offset="0" style="stop-color:#f98610;stop-opacity:1"/><stop offset="1" style="stop-color:#ff005c;stop-opacity:1"/></linearGradient></defs></svg>