<svg id="e9132ac9-0ebd-419d-9811-844b4d88d8cc" xmlns="http://www.w3.org/2000/svg" xmlns:xlink="http://www.w3.org/1999/xlink" viewBox="0 0 777.85 471.68"><defs><style>.cls-1,.cls-2,.cls-6,.cls-7,.cls-8{fill:#f07c41;}.cls-1,.cls-13,.cls-4{opacity:0.1;}.cls-1,.cls-4,.cls-6,.cls-7,.cls-8{isolation:isolate;}.cls-3{fill:#3f3d56;}.cls-5{opacity:0.8;}.cls-6{opacity:0.5;}.cls-7{opacity:0.2;}.cls-8{opacity:0.3;}.cls-9{opacity:0.6;}.cls-10{fill:url(#linear-gradient);}.cls-11{fill:#33313f;}.cls-12{fill:#efb7b9;}.cls-14{fill:url(#linear-gradient-2);}.cls-15{fill:#fbbebe;}.cls-16{fill:#e6e6e6;}.cls-17{fill:#2f2e41;}.cls-18{fill:#ffb8b8;}.cls-19{fill:#fff;}.cls-20{fill:#022249;}</style><linearGradient id="linear-gradient" x1="493.65" y1="106.47" x2="493.65" y2="331.58" gradientTransform="matrix(1, 0, 0, -1, -28, 665.44)" gradientUnits="userSpaceOnUse"><stop offset="0" stop-color="gray" stop-opacity="0.25"/><stop offset="0.54" stop-color="gray" stop-opacity="0.12"/><stop offset="1" stop-color="gray" stop-opacity="0.1"/></linearGradient><linearGradient id="linear-gradient-2" x1="550.02" y1="213.52" x2="640.46" y2="213.52" xlink:href="#linear-gradient"/></defs><title>firework image</title><path class="cls-1" d="M864.63,436.63a143.83,143.83,0,0,1-5.25,24,135.42,135.42,0,0,1-8.89,21.85c0,48.78-39.08,88.32-87.29,88.32H318a110.12,110.12,0,0,1-77-31.36l.59-.14c41.07-10.89,84.4-14.65,120-40.52q-72.76-12.07-144.72-30c-2.95-.75-6.31-1.87-9.76-3-.16-2.46-.25-4.94-.25-7.44l-.64-1.18q-1.41-2.61-2.71-5.32a143.5,143.5,0,0,1-13.87-62.21c0-35.73,12.55-68,32.67-90.75,135.26,11.2,271.37,6.45,407.09,1.68l-119-23.68L316.22,238.26c41.29-58.34,114.17-97.09,197.18-97.09,58.42,0,111.82,19.19,152.73,50.89a91.23,91.23,0,0,1,50.79-15.7c38.36,0,71.9,24.67,90.12,61.48v0a143.41,143.41,0,0,1,14.49,63.54c0,4.14-.17,8.28-.5,12.35,0,.25,0,.48-.06.73a120.12,120.12,0,0,1,31,40.32c.1.18.19.39.28.59q2,4.22,3.77,8.66h-.11q-7.46,1.65-14.88,3.36-80.09,18.51-158.71,44.84-22.53,7.55-44.93,15.74c-12.6,4.61-28.81,15.06-41.88,15.93,89.33-6,179.38,2.74,268.29-7.21Z" transform="translate(-188.92 -131.66)"/><path class="cls-1" d="M865.27,415.81c0-42.53-17.78-80.09-44.94-102.67q.57-6.45.6-13.08c0-69-46.87-125-104.65-125a91.24,91.24,0,0,0-50.79,15.71c-40.91-31.73-94.31-50.92-152.73-50.92-95.06,0-176.83,50.8-213.1,123.66-2-.14-4.05-.22-6.09-.22-57.79,0-104.65,56-104.65,125A142.35,142.35,0,0,0,206.14,457h0c0,62.12,49.77,112.49,111.15,112.49H762.54c48.21,0,87.28-39.55,87.28-88.32h0A143,143,0,0,0,865.27,415.81Z" transform="translate(-188.92 -131.66)"/><path class="cls-1" d="M674.31,560.7c0,3-3,6-8.57,8.68-1,.49-2.07,1-3.23,1.45H366.89c-1.16-.47-2.24-1-3.23-1.45-5.55-2.72-8.57-5.65-8.57-8.68,0-14.82,71.47-26.83,159.63-26.83S674.31,545.88,674.31,560.7Z" transform="translate(-188.92 -131.66)"/><ellipse class="cls-2" cx="213.88" cy="424.28" rx="17.29" ry="3.32"/><ellipse class="cls-3" cx="213.59" cy="422.86" rx="2.01" ry="2.64"/><ellipse class="cls-3" cx="213.59" cy="419.64" rx="2.01" ry="2.64"/><ellipse class="cls-3" cx="213.59" cy="416.42" rx="2.01" ry="2.64"/><ellipse class="cls-3" cx="213.59" cy="413.2" rx="2.01" ry="2.64"/><ellipse class="cls-3" cx="213.59" cy="409.98" rx="2.01" ry="2.64"/><ellipse class="cls-3" cx="213.59" cy="406.76" rx="2.01" ry="2.64"/><ellipse class="cls-3" cx="213.59" cy="403.54" rx="2.01" ry="2.64"/><path class="cls-2" d="M410,513.16a7.61,7.61,0,0,0,.75-1.1l-5.28-.87,5.72.05a9.7,9.7,0,0,0,.18-7.64l-7.69,4,7.1-5.21A9.64,9.64,0,0,0,394.1,512a9.3,9.3,0,0,0,.8,1.17,9.59,9.59,0,0,0-1.1,1.78l6.86,3.54L393.34,516a9.64,9.64,0,0,0,1.56,9.05,9.64,9.64,0,1,0,15.15,0,9.64,9.64,0,0,0,0-11.92Z" transform="translate(-188.92 -131.66)"/><path class="cls-4" d="M392.83,519.14a9.66,9.66,0,0,0,2.07,6,9.64,9.64,0,1,0,15.15,0C411.34,523.44,392.83,518,392.83,519.14Z" transform="translate(-188.92 -131.66)"/><g class="cls-5"><path class="cls-6" d="M591.32,234.88a1.88,1.88,0,0,0-3.07,2.18c.35.53.74,1,1.1,1.53,4.42,6,6.71,13.21,8.68,20.36.48,1.77,1,3.64.4,5.37a33.36,33.36,0,0,0-.92-14,86.53,86.53,0,0,0-5-13.24A11.49,11.49,0,0,0,591.32,234.88Z" transform="translate(-188.92 -131.66)"/><path class="cls-2" d="M562.66,247.42c-3-.09-3.36,4.43-.39,4.67.78,0,1.56.07,2.31.1,9.12.24,17.73,3.54,26,7.09,2,.87,4.14,1.85,5.36,3.72a39.21,39.21,0,0,0-13.89-9.84,102.78,102.78,0,0,0-16.39-5.3A14.3,14.3,0,0,0,562.66,247.42Z" transform="translate(-188.92 -131.66)"/><path class="cls-7" d="M563.48,258.53c-1.88.07-1.46,2.74.43,2.76.5,0,1,0,1.47,0,5.75-.23,11.65,1.35,17.36,3.1a8.9,8.9,0,0,1,3.91,2,31.06,31.06,0,0,0-10.15-5.21,77.41,77.41,0,0,0-11-2.43A9.44,9.44,0,0,0,563.48,258.53Z" transform="translate(-188.92 -131.66)"/><path class="cls-6" d="M602,308.24c.53,1.81,3,.74,2.56-1.11-.12-.48-.26-.95-.4-1.41-1.65-5.51-1.58-11.61-1.3-17.59a9,9,0,0,1,.93-4.27A31.39,31.39,0,0,0,601.25,295a79,79,0,0,0,.39,11.3A9.84,9.84,0,0,0,602,308.24Z" transform="translate(-188.92 -131.66)"/><path class="cls-7" d="M566.91,232.37c-1.13-.2-1.22,1.45-.09,1.7.29.07.59.12.88.17,3.46.59,6.78,2.29,10,4.06a5.32,5.32,0,0,1,2.09,1.67,19.09,19.09,0,0,0-5.4-4.4,47.43,47.43,0,0,0-6.29-2.86A6.13,6.13,0,0,0,566.91,232.37Z" transform="translate(-188.92 -131.66)"/><path class="cls-2" d="M549.42,276.1c-2.87,1.48-.44,5.54,2.51,4.19.77-.35,1.52-.75,2.24-1.12,8.79-4.55,19-6.23,29-7.52,2.46-.32,5.09-.59,7.37.38a49.34,49.34,0,0,0-19.21-1.16,129.4,129.4,0,0,0-18.76,4A16.79,16.79,0,0,0,549.42,276.1Z" transform="translate(-188.92 -131.66)"/><path class="cls-6" d="M557.63,291.9c-2.07,1.93,1.18,4.21,3.32,2.37.59-.49,1.11-1,1.63-1.48,6.29-5.91,14.61-10.12,22.89-14,2-.95,10.4-1.93,12.63-1.87-5.83.52-17.73,2.36-23.05,4.73a127.85,127.85,0,0,0-15,8.43A16.86,16.86,0,0,0,557.63,291.9Z" transform="translate(-188.92 -131.66)"/><path class="cls-2" d="M572.36,317.13c-.59,2.76,3.34,2.8,4.08.05.19-.73.34-1.45.49-2.14,1.82-8.44,6.27-16.63,10.88-24.53,1.14-1.94,7.47-7.49,9.34-8.72-4.51,3.75-13.28,12-16.27,17a127.33,127.33,0,0,0-7.57,15.48A16.06,16.06,0,0,0,572.36,317.13Z" transform="translate(-188.92 -131.66)"/><path class="cls-2" d="M602,220.28c-1.41-2.87-5.43-.52-4.14,2.43.34.77.71,1.52,1.07,2.24,4.33,8.76,5.82,18.92,6.93,28.86.28,2.44.51,5.05-.49,7.3a49.85,49.85,0,0,0,1.43-19,124.76,124.76,0,0,0-3.67-18.65A16.66,16.66,0,0,0,602,220.28Z" transform="translate(-188.92 -131.66)"/><path class="cls-2" d="M579.61,225.16a.51.51,0,0,0,.24.07c.16,0,.27-.16.33-.3.35-.76.15-1.77.7-2.4a8.22,8.22,0,0,1,1.31,2.21l2.06-.65a3.13,3.13,0,0,1-.39,2.37,3.18,3.18,0,0,1,1,.65,1.09,1.09,0,0,1,.26,1.1,5.53,5.53,0,0,1-1.46.14,9.47,9.47,0,0,1-.16,2.71.48.48,0,0,1-.18.35c-.14.1-.34,0-.5-.08a4.89,4.89,0,0,1-1.7-1.8l-.76,1.83a.84.84,0,0,1-.35.46.57.57,0,0,1-.64-.23,1.66,1.66,0,0,1-.23-.69l-.29-1.77a.34.34,0,0,0-.09-.24.4.4,0,0,0-.3-.09c-.73,0-1.46,0-2.19,0-.12-.39.26-.75.63-.91s.82-.29,1-.65c.38-.74-.59-1.77-.19-2.4S579,224.84,579.61,225.16Z" transform="translate(-188.92 -131.66)"/><path class="cls-6" d="M619.45,234.88a1.88,1.88,0,0,1,3.06,2.18c-.35.53-.73,1-1.1,1.53-4.41,6-6.7,13.21-8.67,20.36-.49,1.77-1,3.64-.4,5.37a33.36,33.36,0,0,1,.92-14,85.71,85.71,0,0,1,5-13.24A12.45,12.45,0,0,1,619.45,234.88Z" transform="translate(-188.92 -131.66)"/><path class="cls-2" d="M648.11,247.42c2.95-.09,3.35,4.43.39,4.67-.78,0-1.56.07-2.31.1-9.13.24-17.73,3.54-26,7.09-2,.87-4.17,1.85-5.36,3.72a39,39,0,0,1,13.89-9.84,103.11,103.11,0,0,1,16.39-5.3A14.12,14.12,0,0,1,648.11,247.42Z" transform="translate(-188.92 -131.66)"/><path class="cls-6" d="M647.29,258.53c1.88.07,1.46,2.74-.44,2.76-.49,0-1,0-1.46,0-5.76-.23-11.65,1.35-17.37,3.1a8.86,8.86,0,0,0-3.9,2,31.06,31.06,0,0,1,10.15-5.21,77.51,77.51,0,0,1,11.07-2.43A10.54,10.54,0,0,1,647.29,258.53Z" transform="translate(-188.92 -131.66)"/><path class="cls-7" d="M643.86,232.37c1.13-.2,1.22,1.45.09,1.7-.29.07-.59.12-.88.17-3.46.59-6.79,2.29-10,4.06A5.29,5.29,0,0,0,631,240a18.82,18.82,0,0,1,5.4-4.4,46.29,46.29,0,0,1,6.29-2.86A5.73,5.73,0,0,1,643.86,232.37Z" transform="translate(-188.92 -131.66)"/><path class="cls-7" d="M614.37,311.67c-.26,1.11-1.81.56-1.6-.6.05-.3.12-.59.18-.87.79-3.43.51-7.14.1-10.77a5.41,5.41,0,0,0-.73-2.57,19.31,19.31,0,0,1,2,6.68,48.17,48.17,0,0,1,.2,6.9A5.71,5.71,0,0,1,614.37,311.67Z" transform="translate(-188.92 -131.66)"/><path class="cls-6" d="M643.14,304.21c.88,1.5-1.29,1.4-2.25-.11-.25-.39-.48-.78-.7-1.18-2.69-4.59-6.79-9.12-10.92-13.49a15.19,15.19,0,0,0-3.39-3,53.51,53.51,0,0,1,8.87,7.59c2.64,2.77,5,5.66,7.28,8.54A16.4,16.4,0,0,1,643.14,304.21Z" transform="translate(-188.92 -131.66)"/><path class="cls-7" d="M564.43,304.21c-.89,1.5,1.29,1.4,2.24-.11.25-.39.48-.78.7-1.18,2.7-4.59,6.8-9.12,10.93-13.49a14.53,14.53,0,0,1,3.39-3,53.11,53.11,0,0,0-8.87,7.59c-2.65,2.77-5,5.66-7.29,8.54A14.75,14.75,0,0,0,564.43,304.21Z" transform="translate(-188.92 -131.66)"/><path class="cls-7" d="M593.21,311.67c.26,1.11,1.81.56,1.61-.6-.06-.3-.13-.59-.19-.87-.79-3.43-.51-7.14-.1-10.77a5.42,5.42,0,0,1,.74-2.57,18.89,18.89,0,0,0-2,6.68,46.9,46.9,0,0,0-.21,6.91A6.24,6.24,0,0,0,593.21,311.67Z" transform="translate(-188.92 -131.66)"/><path class="cls-7" d="M634.79,243.64c1.13-.2,1.22,1.46.09,1.71l-.88.16c-3.46.59-6.78,2.29-10,4.06a5.54,5.54,0,0,0-2.08,1.67,19.09,19.09,0,0,1,5.4-4.4,47.43,47.43,0,0,1,6.29-2.86A6.46,6.46,0,0,1,634.79,243.64Z" transform="translate(-188.92 -131.66)"/><path class="cls-7" d="M624.22,221.53c1-.59,1.67.89.71,1.54-.25.17-.51.33-.75.48-3,1.84-5.44,4.66-7.74,7.49a5.44,5.44,0,0,0-1.3,2.33,18.88,18.88,0,0,1,3.36-6.1,47.85,47.85,0,0,1,4.76-5A5.71,5.71,0,0,1,624.22,221.53Z" transform="translate(-188.92 -131.66)"/><path class="cls-2" d="M661.35,276.1c2.87,1.48.44,5.54-2.51,4.19-.77-.35-1.53-.75-2.24-1.12-8.79-4.55-19-6.23-29-7.52-2.45-.32-5.08-.59-7.36.38a49.34,49.34,0,0,1,19.21-1.16,129.4,129.4,0,0,1,18.76,4A17,17,0,0,1,661.35,276.1Z" transform="translate(-188.92 -131.66)"/><path class="cls-6" d="M653.14,291.9c2.06,1.93-1.18,4.21-3.33,2.37-.56-.49-1.11-1-1.62-1.48-6.3-5.91-14.61-10.12-22.89-14-2-.95-10.41-1.93-12.64-1.87,5.84.52,17.74,2.36,23.06,4.73a128.79,128.79,0,0,1,15,8.43A17.36,17.36,0,0,1,653.14,291.9Z" transform="translate(-188.92 -131.66)"/><path class="cls-2" d="M628.79,320.28c.25,2.81-3.67,2.36-4-.47-.1-.74-.16-1.48-.22-2.18-.75-8.6-4.14-17.29-7.73-25.69-.88-2.07-6.47-8.37-8.17-9.82,4,4.28,11.67,13.6,14,18.92a128.32,128.32,0,0,1,5.57,16.3A17.2,17.2,0,0,1,628.79,320.28Z" transform="translate(-188.92 -131.66)"/><path class="cls-2" d="M631.15,225.16a.51.51,0,0,1-.24.07c-.16,0-.27-.16-.33-.3-.36-.76-.15-1.77-.69-2.4a8.25,8.25,0,0,0-1.32,2.21l-2.06-.65a3.09,3.09,0,0,0,.39,2.37,3.18,3.18,0,0,0-1,.65,1.08,1.08,0,0,0-.25,1.1,5.41,5.41,0,0,0,1.45.14,9.84,9.84,0,0,0,.16,2.71.51.51,0,0,0,.17.35.5.5,0,0,0,.51-.08,4.89,4.89,0,0,0,1.7-1.8l.77,1.83a.78.78,0,0,0,.34.46.55.55,0,0,0,.64-.23,1.49,1.49,0,0,0,.23-.69l.28-1.77a.34.34,0,0,1,.4-.33c.73,0,1.46,0,2.19,0,.13-.39-.26-.75-.64-.91s-.81-.29-1-.65c-.37-.74.59-1.77.19-2.4S631.8,224.84,631.15,225.16Z" transform="translate(-188.92 -131.66)"/><path class="cls-7" d="M637.38,310.16a.62.62,0,0,1-.24.08c-.16,0-.27-.16-.33-.31-.35-.76-.15-1.77-.69-2.4a8.38,8.38,0,0,0-1.31,2.21l-2.07-.64a3.13,3.13,0,0,0,.39,2.37,3.18,3.18,0,0,0-1,.65,1.08,1.08,0,0,0-.25,1.1,5.41,5.41,0,0,0,1.45.14,9.84,9.84,0,0,0,.16,2.71.48.48,0,0,0,.18.35c.15.09.35,0,.5-.08a4.84,4.84,0,0,0,1.7-1.78l.77,1.84a.78.78,0,0,0,.34.46.54.54,0,0,0,.64-.23,1.53,1.53,0,0,0,.23-.69l.29-1.77a.38.38,0,0,1,.09-.25.43.43,0,0,1,.31-.08c.72,0,1.46,0,2.18,0,.13-.39-.26-.75-.63-.91s-.82-.29-1-.65c-.37-.74.6-1.77.19-2.4S638,309.86,637.38,310.16Z" transform="translate(-188.92 -131.66)"/><path class="cls-2" d="M654.88,253.18a.57.57,0,0,1-.25.08c-.16,0-.26-.16-.33-.31-.35-.76-.15-1.77-.69-2.39a8.17,8.17,0,0,0-1.31,2.2l-2.06-.64a3,3,0,0,0,.39,2.37,3,3,0,0,0-1,.66,1.07,1.07,0,0,0-.25,1.09,5.45,5.45,0,0,0,1.46.14,9.56,9.56,0,0,0,.15,2.72.52.52,0,0,0,.18.34.48.48,0,0,0,.5-.08,4.62,4.62,0,0,0,1.7-1.81l.76,1.84a.84.84,0,0,0,.35.46.54.54,0,0,0,.64-.23,1.53,1.53,0,0,0,.23-.69l.29-1.74a.54.54,0,0,1,.09-.25.44.44,0,0,1,.31-.09h2.18c.13-.38-.26-.74-.63-.91s-.82-.28-1-.64c-.38-.74.59-1.78.18-2.4C656.31,252.13,655.51,252.87,654.88,253.18Z" transform="translate(-188.92 -131.66)"/><path class="cls-2" d="M584.94,318.68a.56.56,0,0,1-.33.1c-.22,0-.38-.21-.46-.41-.5-1.06-.21-2.44-1-3.34a11.48,11.48,0,0,0-1.82,3.07l-2.88-.89a4.28,4.28,0,0,0,.54,3.29,4.43,4.43,0,0,0-1.35.92,1.51,1.51,0,0,0-.36,1.53,7.73,7.73,0,0,0,2,.2,13.63,13.63,0,0,0,.22,3.77.54.54,0,0,0,.5.57.53.53,0,0,0,.45-.2,6.54,6.54,0,0,0,2.36-2.51l1.07,2.55a1.17,1.17,0,0,0,.48.65.78.78,0,0,0,.9-.32,2.19,2.19,0,0,0,.32-1l.4-2.43a.55.55,0,0,1,.13-.34.63.63,0,0,1,.42-.12c1,0,2,0,3,0,.18-.54-.37-1-.88-1.27s-1.14-.4-1.4-.9c-.53-1,.84-2.46.26-3.35S585.83,318.25,584.94,318.68Z" transform="translate(-188.92 -131.66)"/><path class="cls-2" d="M555.85,254.88a.79.79,0,0,1-.34.1c-.21,0-.37-.22-.46-.42-.49-1.06-.21-2.45-1-3.34a11.2,11.2,0,0,0-1.83,3.06l-2.88-.88a4.24,4.24,0,0,0,.55,3.29,4.36,4.36,0,0,0-1.36.92,1.5,1.5,0,0,0-.35,1.52,6.94,6.94,0,0,0,2,.21,13.72,13.72,0,0,0,.22,3.78.7.7,0,0,0,.24.48c.22.13.49,0,.71-.12a6.69,6.69,0,0,0,2.36-2.51l1.07,2.56a1.11,1.11,0,0,0,.47.63.77.77,0,0,0,.9-.3,2.27,2.27,0,0,0,.32-1l.4-2.43a.71.71,0,0,1,.13-.35.62.62,0,0,1,.43-.12c1,0,2,0,3,0,.18-.54-.36-1-.88-1.27s-1.14-.4-1.4-.9c-.52-1,.84-2.46.26-3.35S556.74,254.44,555.85,254.88Z" transform="translate(-188.92 -131.66)"/><path class="cls-7" d="M644.16,294.39a.43.43,0,0,1-.18.06.35.35,0,0,1-.25-.22c-.26-.6-.1-1.3-.51-1.78a6.39,6.39,0,0,0-1,1.63l-1.53-.47a2.3,2.3,0,0,0,.29,1.77,2.33,2.33,0,0,0-.72.48.83.83,0,0,0-.18.81,3.51,3.51,0,0,0,1.07.11,7.53,7.53,0,0,0,.12,2,.38.38,0,0,0,.13.25c.11.08.26,0,.37-.05a3.6,3.6,0,0,0,1.26-1.34l.59,1.36a.61.61,0,0,0,.25.34.41.41,0,0,0,.48-.17,1.19,1.19,0,0,0,.17-.51l.21-1.29a.44.44,0,0,1,.07-.19.32.32,0,0,1,.23-.06h1.62c.09-.29-.2-.55-.47-.68a1.51,1.51,0,0,1-.75-.47c-.27-.55.45-1.31.14-1.78S644.61,294.16,644.16,294.39Z" transform="translate(-188.92 -131.66)"/><path class="cls-7" d="M604.61,317.21a.29.29,0,0,1-.18.05c-.11,0-.2-.11-.24-.21-.26-.6-.12-1.3-.51-1.78a6.15,6.15,0,0,0-1,1.63l-1.52-.47a2.22,2.22,0,0,0,.29,1.77,2.36,2.36,0,0,0-.72.49.79.79,0,0,0-.19.81,3.93,3.93,0,0,0,1.08.11,7.16,7.16,0,0,0,.11,2,.44.44,0,0,0,.13.25c.11.07.26,0,.37-.06a3.53,3.53,0,0,0,1.26-1.34l.59,1.36a.68.68,0,0,0,.26.34.43.43,0,0,0,.48-.16,1.21,1.21,0,0,0,.16-.52l.22-1.29a.24.24,0,0,1,.07-.18.34.34,0,0,1,.22-.07h1.62c.09-.28-.19-.55-.47-.67a1.36,1.36,0,0,1-.74-.48c-.28-.55.44-1.3.14-1.77S605.09,317,604.61,317.21Z" transform="translate(-188.92 -131.66)"/><path class="cls-6" d="M566.36,237.35a.35.35,0,0,1-.18.05c-.11,0-.2-.12-.24-.22-.26-.57-.12-1.3-.51-1.78a6.15,6.15,0,0,0-1,1.63l-1.52-.47a2.21,2.21,0,0,0,.29,1.77,2.42,2.42,0,0,0-.72.49.79.79,0,0,0-.19.81,3.89,3.89,0,0,0,1.08.11,7.13,7.13,0,0,0,.11,2,.38.38,0,0,0,.14.25.36.36,0,0,0,.37-.06,3.5,3.5,0,0,0,1.25-1.34l.59,1.36a.59.59,0,0,0,.26.34.41.41,0,0,0,.48-.16,1.17,1.17,0,0,0,.16-.52l.22-1.29a.26.26,0,0,1,.07-.18.34.34,0,0,1,.22-.07h1.62c.09-.28-.19-.55-.47-.67a1.36,1.36,0,0,1-.74-.48c-.28-.54.45-1.3.13-1.77S566.84,237.14,566.36,237.35Z" transform="translate(-188.92 -131.66)"/><path class="cls-6" d="M586.72,282.35l-.18.06c-.12,0-.2-.12-.24-.23-.26-.56-.11-1.29-.52-1.77a6.39,6.39,0,0,0-1,1.63l-1.53-.47a2.35,2.35,0,0,0,.29,1.77,2.2,2.2,0,0,0-.71.49.78.78,0,0,0-.19.81,4.28,4.28,0,0,0,1.07.11,7.46,7.46,0,0,0,.12,2,.43.43,0,0,0,.13.26.35.35,0,0,0,.37-.06,3.68,3.68,0,0,0,1.27-1.33l.59,1.36a.56.56,0,0,0,.25.33.4.4,0,0,0,.48-.16,1.33,1.33,0,0,0,.17-.52l.21-1.28a.25.25,0,0,1,.23-.26h1.68c.1-.29-.19-.55-.47-.68s-.59-.2-.73-.48c-.29-.54.44-1.3.13-1.77S587.19,282.12,586.72,282.35Z" transform="translate(-188.92 -131.66)"/><path class="cls-6" d="M571.94,264.81a.34.34,0,0,1-.17.05c-.12,0-.2-.12-.25-.22-.26-.57-.11-1.3-.51-1.78a6.12,6.12,0,0,0-1,1.63l-1.53-.47a2.32,2.32,0,0,0,.29,1.78,2.09,2.09,0,0,0-.72.49.79.79,0,0,0-.19.8,3.61,3.61,0,0,0,1.08.11,6.79,6.79,0,0,0,.12,2,.31.31,0,0,0,.13.25.36.36,0,0,0,.37-.06,3.58,3.58,0,0,0,1.26-1.33l.59,1.36a.63.63,0,0,0,.25.33.4.4,0,0,0,.48-.16,1.28,1.28,0,0,0,.17-.51l.21-1.3a.24.24,0,0,1,.3-.24h1.61c.1-.29-.19-.55-.47-.67a1.41,1.41,0,0,1-.74-.49c-.28-.54.45-1.3.14-1.77S572.42,264.57,571.94,264.81Z" transform="translate(-188.92 -131.66)"/><path class="cls-6" d="M635.4,268.94a.35.35,0,0,1-.18.05c-.11,0-.19-.11-.24-.22-.26-.56-.11-1.3-.51-1.77a5.87,5.87,0,0,0-1,1.63l-1.53-.48a2.28,2.28,0,0,0,.29,1.78,2.09,2.09,0,0,0-.72.49.79.79,0,0,0-.19.8,3.58,3.58,0,0,0,1.08.11,6.77,6.77,0,0,0,.12,2,.31.31,0,0,0,.13.25.36.36,0,0,0,.37-.06,3.58,3.58,0,0,0,1.26-1.33l.59,1.36a.56.56,0,0,0,.25.33.41.41,0,0,0,.48-.16,1.33,1.33,0,0,0,.17-.52l.21-1.28a.34.34,0,0,1,.07-.19.3.3,0,0,1,.23-.06h1.61c.1-.29-.19-.55-.47-.68s-.59-.2-.74-.48c-.28-.54.45-1.3.14-1.77S635.88,268.7,635.4,268.94Z" transform="translate(-188.92 -131.66)"/><path class="cls-7" d="M604.61,265.52a.37.37,0,0,1-.18.05c-.11,0-.2-.12-.24-.22-.26-.6-.12-1.3-.51-1.78a6.15,6.15,0,0,0-1,1.63l-1.52-.47a2.21,2.21,0,0,0,.29,1.77,2.27,2.27,0,0,0-.72.5.77.77,0,0,0-.19.8,3.89,3.89,0,0,0,1.08.11,7.13,7.13,0,0,0,.11,2,.44.44,0,0,0,.13.25.35.35,0,0,0,.37-.06,3.53,3.53,0,0,0,1.26-1.34l.59,1.36a.63.63,0,0,0,.26.34.41.41,0,0,0,.48-.16,1.17,1.17,0,0,0,.16-.52l.22-1.29a.31.31,0,0,1,.07-.18.34.34,0,0,1,.22-.07h1.62c.09-.28-.19-.55-.47-.67a1.36,1.36,0,0,1-.74-.48c-.28-.54.44-1.3.14-1.77S605.09,265.25,604.61,265.52Z" transform="translate(-188.92 -131.66)"/><path class="cls-8" d="M595,269.69a.41.41,0,0,1-.18.05c-.12,0-.2-.11-.24-.22-.26-.56-.12-1.29-.52-1.77a6.39,6.39,0,0,0-1,1.63l-1.53-.48a2.32,2.32,0,0,0,.29,1.78,2.36,2.36,0,0,0-.72.49.81.81,0,0,0-.18.8,3.86,3.86,0,0,0,1.07.12,7.46,7.46,0,0,0,.12,2,.38.38,0,0,0,.13.25.35.35,0,0,0,.37-.06,3.43,3.43,0,0,0,1.26-1.33l.59,1.36a.63.63,0,0,0,.26.34.41.41,0,0,0,.47-.16,1.1,1.1,0,0,0,.17-.52l.22-1.29a.33.33,0,0,1,.06-.19.38.38,0,0,1,.23-.06h1.62c.09-.29-.2-.55-.47-.68s-.59-.2-.75-.47c-.27-.55.45-1.3.15-1.78S595.42,269.45,595,269.69Z" transform="translate(-188.92 -131.66)"/><path class="cls-7" d="M585.94,244.23a.55.55,0,0,1-.18.06c-.11,0-.2-.12-.24-.23-.26-.56-.12-1.29-.51-1.77a6.15,6.15,0,0,0-1,1.63l-1.52-.47a2.21,2.21,0,0,0,.29,1.77,2.36,2.36,0,0,0-.72.49.78.78,0,0,0-.19.81,3.92,3.92,0,0,0,1.08.1,7.13,7.13,0,0,0,.11,2,.43.43,0,0,0,.13.26.38.38,0,0,0,.37-.06,3.53,3.53,0,0,0,1.26-1.34l.59,1.36a.63.63,0,0,0,.26.34.42.42,0,0,0,.48-.17,1.13,1.13,0,0,0,.16-.51l.22-1.29a.29.29,0,0,1,.07-.18.29.29,0,0,1,.22-.07h1.62c.09-.28-.19-.55-.47-.67s-.59-.22-.74-.48c-.28-.55.44-1.31.14-1.77S586.42,244,585.94,244.23Z" transform="translate(-188.92 -131.66)"/><path class="cls-8" d="M603.68,277.45a.35.35,0,0,1-.18.05c-.11,0-.19-.12-.24-.22-.26-.57-.11-1.3-.51-1.78a6.15,6.15,0,0,0-1,1.63l-1.52-.47a2.28,2.28,0,0,0,.29,1.78,2.19,2.19,0,0,0-.72.49.8.8,0,0,0-.19.81,4.35,4.35,0,0,0,1.08.1,7.13,7.13,0,0,0,.11,2,.38.38,0,0,0,.13.25c.12.08.26,0,.38-.06a3.4,3.4,0,0,0,1.25-1.33l.6,1.35a.61.61,0,0,0,.25.34.4.4,0,0,0,.48-.16,1.13,1.13,0,0,0,.16-.51l.22-1.3a.31.31,0,0,1,.07-.18.34.34,0,0,1,.22-.07h1.62c.09-.28-.19-.55-.47-.67A1.36,1.36,0,0,1,605,279c-.28-.55.44-1.3.14-1.77S604.16,277.21,603.68,277.45Z" transform="translate(-188.92 -131.66)"/></g><g class="cls-9"><path class="cls-6" d="M569.94,141.64A1.18,1.18,0,0,0,568,143c.22.33.46.66.69,1,2.77,3.75,4.21,8.28,5.45,12.79a6.12,6.12,0,0,1,.25,3.38,21,21,0,0,0-.59-8.81A54.69,54.69,0,0,0,570.7,143,7.12,7.12,0,0,0,569.94,141.64Z" transform="translate(-188.92 -131.66)"/><path class="cls-2" d="M551.93,149.52a1.48,1.48,0,0,0-.25,2.95c.49,0,1,.05,1.46.06,5.73.16,11.15,2.24,16.36,4.47a7.05,7.05,0,0,1,3.37,2.37,24.6,24.6,0,0,0-8.73-6.19,65.09,65.09,0,0,0-10.3-3.32A8.23,8.23,0,0,0,551.93,149.52Z" transform="translate(-188.92 -131.66)"/><path class="cls-7" d="M552.45,156.49c-1.18,0-.91,1.73.28,1.74h.92c3.61-.14,7.31.85,10.91,2a5.63,5.63,0,0,1,2.45,1.23,19.71,19.71,0,0,0-6.38-3.27,49.57,49.57,0,0,0-6.93-1.55A7.44,7.44,0,0,0,552.45,156.49Z" transform="translate(-188.92 -131.66)"/><path class="cls-6" d="M576.64,187.73c.34,1.13,1.9.46,1.62-.69-.08-.31-.17-.6-.26-.89-1-3.47-1-7.3-.81-11.06a5.52,5.52,0,0,1,.59-2.67,19.59,19.59,0,0,0-1.61,7,49.52,49.52,0,0,0,.24,7.1A7.4,7.4,0,0,0,576.64,187.73Z" transform="translate(-188.92 -131.66)"/><path class="cls-7" d="M554.61,140.07c-.72-.13-.77.91-.06,1.07l.55.1a20.49,20.49,0,0,1,6.27,2.54,3.38,3.38,0,0,1,1.31,1.06,11.92,11.92,0,0,0-3.39-2.77,29.62,29.62,0,0,0-3.95-1.77A3.25,3.25,0,0,0,554.61,140.07Z" transform="translate(-188.92 -131.66)"/><path class="cls-2" d="M543.62,167.54c-1.8.93-.28,3.47,1.58,2.63.48-.22,1-.47,1.4-.7,5.53-2.87,11.93-3.92,18.24-4.73a8.84,8.84,0,0,1,4.63.24,31.13,31.13,0,0,0-12.08-.73,79.23,79.23,0,0,0-11.78,2.54A9.94,9.94,0,0,0,543.62,167.54Z" transform="translate(-188.92 -131.66)"/><path class="cls-6" d="M548.78,177.46c-1.3,1.22.73,2.65,2.09,1.48.35-.3.69-.62,1-.93,4-3.71,9.19-6.35,14.39-8.79,1.27-.59,6.5-1.18,7.94-1.18-3.67.33-11.16,1.47-14.49,3a78.44,78.44,0,0,0-9.46,5.32A10.58,10.58,0,0,0,548.78,177.46Z" transform="translate(-188.92 -131.66)"/><path class="cls-2" d="M558,193.31c-.38,1.74,2.1,1.78,2.56,0,.12-.45.22-.91.32-1.34,1.14-5.32,3.93-10.45,6.83-15.41.71-1.21,4.69-4.73,5.86-5.47-2.83,2.36-8.34,7.55-10.21,10.68a78.67,78.67,0,0,0-4.73,9.73A11.4,11.4,0,0,0,558,193.31Z" transform="translate(-188.92 -131.66)"/><path class="cls-2" d="M576.67,132.46c-.89-1.77-3.41-.32-2.61,1.53.21.49.44,1,.67,1.41,2.72,5.51,3.66,11.87,4.35,18.13a8.85,8.85,0,0,1-.3,4.58,31.47,31.47,0,0,0,.9-12,79.42,79.42,0,0,0-2.33-11.72A10.77,10.77,0,0,0,576.67,132.46Z" transform="translate(-188.92 -131.66)"/><path class="cls-2" d="M562.57,135.53a.44.44,0,0,0,.15.05.27.27,0,0,0,.21-.19c.22-.48.09-1.1.43-1.51a5,5,0,0,1,.83,1.39l1.34-.41a2,2,0,0,1-.25,1.49,1.87,1.87,0,0,1,.59.42.66.66,0,0,1,.16.68,3.55,3.55,0,0,1-.92.09,5.71,5.71,0,0,1-.1,1.7.27.27,0,0,1-.11.22.32.32,0,0,1-.31-.05,2.91,2.91,0,0,1-1.07-1.13l-.48,1.18a.49.49,0,0,1-.22.29.35.35,0,0,1-.4-.14,1,1,0,0,1-.14-.44l-.19-1.1a.22.22,0,0,0-.06-.15.24.24,0,0,0-.18,0h-1.38c-.08-.25.16-.48.4-.59s.51-.18.63-.41c.24-.46-.38-1.11-.12-1.51S562.19,135.34,562.57,135.53Z" transform="translate(-188.92 -131.66)"/><path class="cls-6" d="M587.62,141.64a1.18,1.18,0,1,1,1.92,1.37h0c-.22.33-.46.66-.69,1-2.77,3.75-4.21,8.28-5.45,12.79a6,6,0,0,0-.25,3.38,21,21,0,0,1,.59-8.81,54.64,54.64,0,0,1,3.11-8.31A7.16,7.16,0,0,1,587.62,141.64Z" transform="translate(-188.92 -131.66)"/><path class="cls-2" d="M605.62,149.52a1.48,1.48,0,0,1,.25,2.95c-.49,0-1,.05-1.45.06-5.74.16-11.16,2.24-16.37,4.47a7,7,0,0,0-3.36,2.37,24.6,24.6,0,0,1,8.73-6.19,65,65,0,0,1,10.29-3.32A8.79,8.79,0,0,1,605.62,149.52Z" transform="translate(-188.92 -131.66)"/><path class="cls-6" d="M605.14,156.49c1.18,0,.91,1.73-.28,1.74h-.92c-3.61-.14-7.31.85-10.91,2a5.63,5.63,0,0,0-2.45,1.23,19.71,19.71,0,0,1,6.38-3.27,48.27,48.27,0,0,1,6.94-1.53A8.54,8.54,0,0,1,605.14,156.49Z" transform="translate(-188.92 -131.66)"/><path class="cls-7" d="M603,140.07c.72-.13.77.91.06,1.07l-.56.1a20.43,20.43,0,0,0-6.26,2.54,3.38,3.38,0,0,0-1.31,1.06,11.92,11.92,0,0,1,3.39-2.77,28.52,28.52,0,0,1,4-1.77A3.25,3.25,0,0,1,603,140.07Z" transform="translate(-188.92 -131.66)"/><path class="cls-7" d="M584.45,189.88c-.16.7-1.14.35-1-.36a2.57,2.57,0,0,1,.12-.55,20.75,20.75,0,0,0,.07-6.77,3.5,3.5,0,0,0-.47-1.61,11.91,11.91,0,0,1,1.24,4.2,31.33,31.33,0,0,1,.14,4.33A4.78,4.78,0,0,1,584.45,189.88Z" transform="translate(-188.92 -131.66)"/><path class="cls-6" d="M602.5,185.2c.55.94-.81.87-1.41-.07-.16-.25-.3-.49-.44-.73a50.92,50.92,0,0,0-6.87-8.48,9.81,9.81,0,0,0-2.12-1.84,33.9,33.9,0,0,1,5.57,4.77c1.67,1.74,3.14,3.55,4.58,5.37A9.59,9.59,0,0,1,602.5,185.2Z" transform="translate(-188.92 -131.66)"/><path class="cls-7" d="M553.05,185.2c-.56.94.81.87,1.41-.07.16-.25.3-.49.44-.73a50.84,50.84,0,0,1,6.86-8.48,9.87,9.87,0,0,1,2.13-1.84,34.39,34.39,0,0,0-5.58,4.77c-1.66,1.74-3.13,3.55-4.58,5.37A11.37,11.37,0,0,0,553.05,185.2Z" transform="translate(-188.92 -131.66)"/><path class="cls-7" d="M571.13,189.88c.16.7,1.14.35,1-.36,0-.19-.07-.37-.11-.55a20.47,20.47,0,0,1-.07-6.77,3.37,3.37,0,0,1,.46-1.61,11.91,11.91,0,0,0-1.24,4.2,29.84,29.84,0,0,0-.13,4.33A3.84,3.84,0,0,0,571.13,189.88Z" transform="translate(-188.92 -131.66)"/><path class="cls-7" d="M597.26,147.14c.71-.13.76.91,0,1.07l-.55.1a20.51,20.51,0,0,0-6.27,2.55,3.53,3.53,0,0,0-1.31,1,11.8,11.8,0,0,1,3.4-2.76,29.81,29.81,0,0,1,3.95-1.78A3.65,3.65,0,0,1,597.26,147.14Z" transform="translate(-188.92 -131.66)"/><path class="cls-7" d="M590.61,133.25c.59-.38,1,.59.45,1l-.47.3a21.39,21.39,0,0,0-4.87,4.73,3.3,3.3,0,0,0-.81,1.46,11.68,11.68,0,0,1,2.11-3.83,29.59,29.59,0,0,1,3-3.14A3.56,3.56,0,0,1,590.61,133.25Z" transform="translate(-188.92 -131.66)"/><path class="cls-2" d="M613.94,167.54c1.8.93.28,3.47-1.58,2.63-.48-.22-1-.47-1.41-.7-5.52-2.87-11.92-3.92-18.23-4.73a8.84,8.84,0,0,0-4.63.24,31.09,31.09,0,0,1,12.07-.73A77.86,77.86,0,0,1,612,166.79,10.17,10.17,0,0,1,613.94,167.54Z" transform="translate(-188.92 -131.66)"/><path class="cls-6" d="M608.78,177.46c1.3,1.22-.73,2.65-2.09,1.48-.35-.3-.69-.62-1-.93-3.95-3.71-9.17-6.35-14.38-8.79-1.27-.59-6.54-1.18-7.94-1.18,3.67.33,11.15,1.47,14.48,3a78.44,78.44,0,0,1,9.46,5.32A10.12,10.12,0,0,1,608.78,177.46Z" transform="translate(-188.92 -131.66)"/><path class="cls-2" d="M593.49,195.3c.16,1.77-2.3,1.47-2.54-.3-.06-.46-.1-.93-.14-1.37-.47-5.41-2.6-10.86-4.86-16.14-.55-1.3-4.06-5.26-5.12-6.17,2.51,2.69,7.32,8.53,8.8,11.88a82,82,0,0,1,3.5,10.25A9.61,9.61,0,0,1,593.49,195.3Z" transform="translate(-188.92 -131.66)"/><path class="cls-2" d="M595,135.53a.44.44,0,0,1-.15.05c-.1,0-.17-.1-.21-.19-.22-.48-.09-1.1-.43-1.51a5,5,0,0,0-.83,1.39l-1.29-.41a1.9,1.9,0,0,0,.24,1.49,1.87,1.87,0,0,0-.59.42.66.66,0,0,0-.16.68,3.55,3.55,0,0,0,.92.09,6.06,6.06,0,0,0,.1,1.7.24.24,0,0,0,.43.17,2.91,2.91,0,0,0,1.07-1.13l.47,1.18a.53.53,0,0,0,.22.29.35.35,0,0,0,.41-.14,1.08,1.08,0,0,0,.14-.44l.18-1.1a.22.22,0,0,1,.06-.15.25.25,0,0,1,.19,0h1.37c.08-.25-.17-.48-.4-.59s-.51-.18-.63-.41c-.23-.46.39-1.11.12-1.51S595.37,135.34,595,135.53Z" transform="translate(-188.92 -131.66)"/><path class="cls-7" d="M598.88,188.93a.27.27,0,0,1-.15,0c-.1,0-.17-.1-.21-.19-.22-.48-.09-1.1-.43-1.51a5.45,5.45,0,0,0-.83,1.39l-1.29-.4a2,2,0,0,0,.24,1.49,2,2,0,0,0-.59.41.67.67,0,0,0-.16.69,3.16,3.16,0,0,0,.92.08,6.11,6.11,0,0,0,.09,1.71.36.36,0,0,0,.11.22.35.35,0,0,0,.32-.06,2.91,2.91,0,0,0,1.07-1.13l.48,1.16a.53.53,0,0,0,.22.29.34.34,0,0,0,.4-.15,1,1,0,0,0,.14-.43l.18-1.1a.52.52,0,0,1,.06-.16.29.29,0,0,1,.2,0H601c.07-.24-.17-.47-.4-.59s-.51-.18-.63-.41c-.24-.46.38-1.11.12-1.51S599.29,188.74,598.88,188.93Z" transform="translate(-188.92 -131.66)"/><path class="cls-2" d="M609.87,153.14a.42.42,0,0,1-.16,0c-.1,0-.16-.1-.2-.18-.23-.48-.1-1.1-.44-1.51a5.2,5.2,0,0,0-.82,1.38l-1.3-.4a2,2,0,0,0,.25,1.49,1.78,1.78,0,0,0-.59.41.68.68,0,0,0-.16.69,3.47,3.47,0,0,0,.91.09,6.15,6.15,0,0,0,.1,1.71.26.26,0,0,0,.11.21.31.31,0,0,0,.31,0,3.05,3.05,0,0,0,1.07-1.13l.49,1.18a.51.51,0,0,0,.21.29.35.35,0,0,0,.4-.14,1,1,0,0,0,.14-.44l.19-1.1a.22.22,0,0,1,.06-.15.26.26,0,0,1,.19-.06H612c.08-.24-.16-.47-.4-.59s-.51-.18-.63-.41c-.24-.46.38-1.1.12-1.5S610.27,152.94,609.87,153.14Z" transform="translate(-188.92 -131.66)"/><path class="cls-2" d="M565.94,194.29a.57.57,0,0,1-.22.07c-.13,0-.23-.14-.29-.27-.3-.67-.13-1.53-.59-2.09a6.78,6.78,0,0,0-1.14,1.92l-1.81-.59a2.69,2.69,0,0,0,.34,2.07,2.65,2.65,0,0,0-.85.59,1,1,0,0,0-.23,1,4.6,4.6,0,0,0,1.28.12,8.55,8.55,0,0,0,.14,2.37.43.43,0,0,0,.16.3c.13.08.3,0,.43-.07a4.15,4.15,0,0,0,1.48-1.55l.67,1.6a.73.73,0,0,0,.3.41.48.48,0,0,0,.59-.2,1.38,1.38,0,0,0,.2-.59l.25-1.53a.47.47,0,0,1,.09-.22.42.42,0,0,1,.27-.07h1.91c.11-.34-.23-.65-.56-.8s-.71-.25-.87-.56c-.34-.65.52-1.55.16-2.11S566.5,194,565.94,194.29Z" transform="translate(-188.92 -131.66)"/><path class="cls-2" d="M547.66,154.21a.43.43,0,0,1-.22.06c-.13,0-.23-.14-.29-.26-.3-.67-.13-1.54-.59-2.1a7.33,7.33,0,0,0-1.14,1.92l-1.81-.55a2.69,2.69,0,0,0,.34,2.07,2.65,2.65,0,0,0-.85.59.93.93,0,0,0-.22.95,4.19,4.19,0,0,0,1.27.13,8.57,8.57,0,0,0,.14,2.37.39.39,0,0,0,.16.3c.13.09.3,0,.43-.07a4.19,4.19,0,0,0,1.49-1.58l.67,1.61a.79.79,0,0,0,.3.4.49.49,0,0,0,.57-.2,1.38,1.38,0,0,0,.2-.59l.24-1.52a.43.43,0,0,1,.09-.22.38.38,0,0,1,.27-.08h1.91c.11-.34-.23-.66-.56-.8s-.71-.25-.87-.59c-.33-.64.52-1.54.16-2.1S548.22,153.93,547.66,154.21Z" transform="translate(-188.92 -131.66)"/><path class="cls-7" d="M603.12,179H603c-.07,0-.12-.07-.15-.13-.16-.36-.07-.82-.32-1.12a3.72,3.72,0,0,0-.59,1l-1-.29a1.4,1.4,0,0,0,.19,1.09,1.57,1.57,0,0,0-.45.31.49.49,0,0,0-.12.51,2.55,2.55,0,0,0,.67.07,4.44,4.44,0,0,0,.08,1.26.21.21,0,0,0,.08.16c.07.05.16,0,.23,0a2.1,2.1,0,0,0,.79-.83l.36.85a.34.34,0,0,0,.16.21.26.26,0,0,0,.3-.1.92.92,0,0,0,.11-.33l.13-.81a.21.21,0,0,1,0-.11.3.3,0,0,1,.15-.05h1c.06-.18-.12-.34-.29-.42s-.39-.13-.47-.3c-.18-.35.28-.82.08-1.12S603.42,178.88,603.12,179Z" transform="translate(-188.92 -131.66)"/><path class="cls-7" d="M578.29,193.39a.2.2,0,0,1-.11,0c-.07,0-.12-.07-.15-.13-.16-.36-.07-.82-.32-1.12a3.72,3.72,0,0,0-.59,1l-1-.29a1.4,1.4,0,0,0,.19,1.09,1.44,1.44,0,0,0-.45.31.49.49,0,0,0-.12.51,2.55,2.55,0,0,0,.67.07,4.44,4.44,0,0,0,.08,1.26.21.21,0,0,0,.08.16.24.24,0,0,0,.23,0,2.1,2.1,0,0,0,.79-.83l.36.85a.41.41,0,0,0,.16.21.29.29,0,0,0,.3-.1.75.75,0,0,0,.1-.33l.14-.81a.16.16,0,0,1,.19-.16h1c.06-.18-.12-.34-.29-.42s-.39-.14-.47-.3c-.18-.35.28-.82.08-1.12S578.59,193.22,578.29,193.39Z" transform="translate(-188.92 -131.66)"/><path class="cls-6" d="M554.3,143.19a.27.27,0,0,1-.12,0,.19.19,0,0,1-.15-.14c-.17-.35-.07-.82-.33-1.11a4.31,4.31,0,0,0-.59,1l-1-.29a1.42,1.42,0,0,0,.17,1.1,1.37,1.37,0,0,0-.45.3.5.5,0,0,0-.11.51,2.22,2.22,0,0,0,.68.07,4.11,4.11,0,0,0,.07,1.26.21.21,0,0,0,.08.16.24.24,0,0,0,.23,0,2.13,2.13,0,0,0,.79-.84l.36.85a.36.36,0,0,0,.16.22.26.26,0,0,0,.3-.11.71.71,0,0,0,.1-.32l.13-.81a.17.17,0,0,1,.17-.16h1c0-.18-.12-.35-.3-.42s-.37-.14-.46-.31c-.18-.34.28-.82.09-1.11S554.56,143,554.3,143.19Z" transform="translate(-188.92 -131.66)"/><path class="cls-6" d="M567.05,171.46a.21.21,0,0,1-.11,0c-.07,0-.12-.08-.15-.14-.17-.36-.07-.82-.32-1.11a3.58,3.58,0,0,0-.59,1l-1-.3a1.41,1.41,0,0,0,.18,1.1,1.39,1.39,0,0,0-.45.31.49.49,0,0,0-.12.5,2.22,2.22,0,0,0,.68.07,4.43,4.43,0,0,0,.07,1.26.19.19,0,0,0,.08.16c.07,0,.17,0,.24,0a2.36,2.36,0,0,0,.79-.84l.36.85a.34.34,0,0,0,.16.21.24.24,0,0,0,.29-.1.76.76,0,0,0,.11-.32l.13-.81a.31.31,0,0,1,0-.12.23.23,0,0,1,.14,0h1c.06-.17-.12-.35-.29-.42s-.38-.13-.47-.3c-.17-.35.29-.82.09-1.12S567.35,171.32,567.05,171.46Z" transform="translate(-188.92 -131.66)"/><path class="cls-6" d="M557.77,160.44a.11.11,0,0,1-.11,0c-.07,0-.12-.07-.15-.13-.17-.36-.07-.82-.32-1.12a3.72,3.72,0,0,0-.59,1l-1-.29a1.43,1.43,0,0,0,.18,1.1,1.54,1.54,0,0,0-.45.3.51.51,0,0,0-.12.51,2.22,2.22,0,0,0,.68.07,4.43,4.43,0,0,0,.07,1.26.18.18,0,0,0,.32.12,2.15,2.15,0,0,0,.78-.83l.36.85a.42.42,0,0,0,.16.21.25.25,0,0,0,.3-.1.76.76,0,0,0,.11-.32l.13-.82a.16.16,0,0,1,.14-.16h1.06c.06-.18-.12-.35-.29-.42s-.38-.14-.47-.3c-.18-.35.28-.83.09-1.12S558.07,160.28,557.77,160.44Z" transform="translate(-188.92 -131.66)"/><path class="cls-6" d="M597.64,163a.2.2,0,0,1-.11,0c-.08,0-.12-.07-.15-.14-.17-.35-.07-.81-.33-1.11a3.58,3.58,0,0,0-.59,1l-1-.3a1.41,1.41,0,0,0,.18,1.1,1.57,1.57,0,0,0-.45.31.5.5,0,0,0-.12.51,2.57,2.57,0,0,0,.68.06,4.91,4.91,0,0,0,.07,1.27.26.26,0,0,0,.09.16.24.24,0,0,0,.23,0,2.28,2.28,0,0,0,.79-.84l.35.85a.45.45,0,0,0,.16.22.25.25,0,0,0,.3-.11.76.76,0,0,0,.11-.32l.13-.81a.26.26,0,0,1,.05-.12.23.23,0,0,1,.14,0h1c0-.18-.13-.34-.3-.42s-.38-.13-.47-.3c-.17-.34.28-.82.09-1.12S597.94,162.89,597.64,163Z" transform="translate(-188.92 -131.66)"/><path class="cls-7" d="M578.29,160.88h-.11c-.07,0-.12-.08-.15-.14-.16-.36-.07-.82-.32-1.12a3.77,3.77,0,0,0-.59,1l-1-.3a1.42,1.42,0,0,0,.19,1.1,1.29,1.29,0,0,0-.45.31.47.47,0,0,0-.12.5,2.56,2.56,0,0,0,.67.08,4.46,4.46,0,0,0,.08,1.26.19.19,0,0,0,.08.15c.07.05.16,0,.23,0a2.1,2.1,0,0,0,.79-.83l.36.85a.31.31,0,0,0,.16.21.26.26,0,0,0,.3-.1.75.75,0,0,0,.1-.32l.14-.81a.25.25,0,0,1,0-.12.28.28,0,0,1,.15,0h1c.06-.18-.12-.35-.29-.43s-.39-.13-.47-.3c-.18-.34.28-.82.08-1.12S578.59,160.72,578.29,160.88Z" transform="translate(-188.92 -131.66)"/><path class="cls-8" d="M572.23,163.51a.27.27,0,0,1-.12,0c-.07,0-.12-.07-.15-.13-.16-.36-.07-.82-.32-1.12a4,4,0,0,0-.6,1l-1-.29a1.47,1.47,0,0,0,.18,1.1,1.48,1.48,0,0,0-.45.3.5.5,0,0,0-.11.51,2.15,2.15,0,0,0,.67.07,4.44,4.44,0,0,0,.08,1.26.21.21,0,0,0,.08.16.21.21,0,0,0,.23,0,2.17,2.17,0,0,0,.79-.83l.36.85a.36.36,0,0,0,.16.21.26.26,0,0,0,.3-.11.81.81,0,0,0,.11-.32l.13-.81a.16.16,0,0,1,.16-.16h1c.05-.18-.12-.35-.29-.42s-.38-.14-.47-.31c-.18-.34.28-.82.08-1.11S572.52,163.36,572.23,163.51Z" transform="translate(-188.92 -131.66)"/><path class="cls-7" d="M566.56,147.53a.2.2,0,0,1-.11,0c-.07,0-.12-.07-.15-.14-.16-.35-.07-.82-.32-1.11a3.72,3.72,0,0,0-.59,1l-1-.3a1.42,1.42,0,0,0,.19,1.1,1.39,1.39,0,0,0-.45.31.5.5,0,0,0-.12.51,3.05,3.05,0,0,0,.67.07,4.46,4.46,0,0,0,.08,1.26.23.23,0,0,0,.08.16.24.24,0,0,0,.23,0,2.3,2.3,0,0,0,.8-.84l.35.85a.31.31,0,0,0,.16.21.24.24,0,0,0,.3-.1.75.75,0,0,0,.1-.32l.14-.81a.25.25,0,0,1,0-.12.21.21,0,0,1,.15,0h1c.06-.19-.12-.35-.29-.43s-.39-.13-.47-.3c-.18-.35.28-.82.08-1.11S566.86,147.38,566.56,147.53Z" transform="translate(-188.92 -131.66)"/><path class="cls-8" d="M577.71,168.38a.2.2,0,0,1-.11,0c-.08,0-.12-.07-.15-.13-.17-.36-.07-.82-.33-1.12a3.77,3.77,0,0,0-.59,1l-1-.3a1.47,1.47,0,0,0,.18,1.1,1.54,1.54,0,0,0-.45.3.51.51,0,0,0-.12.51,2.25,2.25,0,0,0,.68.07,4.83,4.83,0,0,0,.07,1.26.26.26,0,0,0,.09.16c.07.05.16,0,.23,0a2.36,2.36,0,0,0,.79-.84l.35.85a.42.42,0,0,0,.16.21.27.27,0,0,0,.31-.1.92.92,0,0,0,.1-.32l.13-.81a.22.22,0,0,1,0-.12.18.18,0,0,1,.14,0h1c.06-.19-.13-.35-.3-.43s-.38-.13-.46-.3c-.18-.34.28-.82.08-1.12S578,168.24,577.71,168.38Z" transform="translate(-188.92 -131.66)"/></g><path class="cls-6" d="M441.16,156.91c-2.15-3-6.61.24-4.59,3.28.52.79,1.09,1.57,1.64,2.3,6.64,9,10.08,19.85,13.05,30.61.72,2.64,1.43,5.46.59,8.07a50.58,50.58,0,0,0-1.38-21.07A130.9,130.9,0,0,0,443,160.2,17.5,17.5,0,0,0,441.16,156.91Z" transform="translate(-188.92 -131.66)"/><path class="cls-2" d="M398.08,175.76c-4.48-.13-5,6.66-.59,7,1.19.1,2.37.13,3.48.16,13.72.37,26.69,5.32,39.15,10.69,3.05,1.31,6.26,2.79,8.06,5.6-5.62-6.5-13-11.29-20.89-14.78s-16.25-5.83-24.64-8A21.33,21.33,0,0,0,398.08,175.76Z" transform="translate(-188.92 -131.66)"/><path class="cls-7" d="M399.31,192.46c-2.82.11-2.18,4.14.67,4.14.74,0,1.48,0,2.19-.06,8.65-.35,17.52,2,26.11,4.67,2.11.64,4.34,1.37,5.87,2.95a46.84,46.84,0,0,0-15.26-7.83,116.34,116.34,0,0,0-16.6-3.65A15.62,15.62,0,0,0,399.31,192.46Z" transform="translate(-188.92 -131.66)"/><path class="cls-6" d="M457.2,267.2c.81,2.72,4.54,1.1,3.86-1.66-.18-.73-.39-1.44-.59-2.12-2.49-8.28-2.36-17.47-2-26.45.1-2.2.26-4.54,1.41-6.42a47.21,47.21,0,0,0-3.8,16.72,113.28,113.28,0,0,0,.59,17A16.15,16.15,0,0,0,457.2,267.2Z" transform="translate(-188.92 -131.66)"/><path class="cls-7" d="M404.47,153.14c-1.7-.3-1.83,2.18-.13,2.56.44.1.89.17,1.32.25,5.21.89,10.2,3.44,15,6.1a8.13,8.13,0,0,1,3.13,2.51,28.91,28.91,0,0,0-8.12-6.64,69.41,69.41,0,0,0-9.46-4.29A8.83,8.83,0,0,0,404.47,153.14Z" transform="translate(-188.92 -131.66)"/><path class="cls-2" d="M378.18,218.88c-4.32,2.22-.67,8.33,3.77,6.3,1.18-.53,2.29-1.12,3.38-1.68,13.2-6.85,28.53-9.38,43.62-11.32,3.7-.47,7.65-.89,11.07.59-9.33-2.63-19.27-2.85-28.88-1.73s-18.95,3.55-28.2,6.06A26,26,0,0,0,378.18,218.88Z" transform="translate(-188.92 -131.66)"/><path class="cls-6" d="M390.53,242.64c-3.1,2.89,1.75,6.32,5,3.55.85-.73,1.66-1.5,2.43-2.23,9.46-8.87,22-15.2,34.42-21,3.06-1.43,15.63-2.89,19-2.81-8.77.79-26.69,3.55-34.65,7.15a188.64,188.64,0,0,0-22.61,12.67A24.25,24.25,0,0,0,390.53,242.64Z" transform="translate(-188.92 -131.66)"/><path class="cls-2" d="M412.67,280.57c-.91,4.14,5,4.2,6.12.06.29-1.08.52-2.17.75-3.21,2.73-12.69,9.43-25,16.36-36.87,1.7-2.91,11.23-11.27,14-13.11-6.77,5.63-20,18.07-24.45,25.58a193.19,193.19,0,0,0-11.39,23.27A24.69,24.69,0,0,0,412.67,280.57Z" transform="translate(-188.92 -131.66)"/><path class="cls-2" d="M457.26,135c-2.12-4.32-8.16-.77-6.25,3.65.51,1.18,1.07,2.3,1.61,3.37,6.5,13.17,8.75,28.41,10.42,43.39.41,3.67.77,7.59-.73,11,2.73-9.22,3.09-19.07,2.15-28.61s-3.17-18.83-5.52-28A25,25,0,0,0,457.26,135Z" transform="translate(-188.92 -131.66)"/><path class="cls-2" d="M423.57,142.29a.66.66,0,0,0,.36.11c.24,0,.4-.24.5-.45.53-1.15.22-2.64,1-3.6a12.45,12.45,0,0,1,2,3.31l3.11-1a4.67,4.67,0,0,1-.59,3.55,4.66,4.66,0,0,1,1.46,1,1.63,1.63,0,0,1,.38,1.64,7.73,7.73,0,0,1-2.19.22,15.09,15.09,0,0,1-.23,4.08.78.78,0,0,1-.27.51c-.23.15-.53,0-.76-.12a7.22,7.22,0,0,1-2.55-2.71l-1.15,2.76a1.28,1.28,0,0,1-.52.69.84.84,0,0,1-1-.33,2.45,2.45,0,0,1-.34-1l-.43-2.62a.73.73,0,0,0-.14-.38.77.77,0,0,0-.46-.13c-1.1,0-2.19,0-3.29,0-.19-.59.39-1.12,1-1.37s1.22-.43,1.5-1c.59-1.11-.91-2.65-.27-3.61S422.61,141.82,423.57,142.29Z" transform="translate(-188.92 -131.66)"/><path class="cls-6" d="M483.46,156.91c2.16-3,6.62.24,4.6,3.28-.52.79-1.1,1.57-1.65,2.3-6.63,9-10.05,19.85-13,30.61-.73,2.64-1.43,5.46-.59,8.07a50.41,50.41,0,0,1,1.37-21.07,129.89,129.89,0,0,1,7.46-19.9A18,18,0,0,1,483.46,156.91Z" transform="translate(-188.92 -131.66)"/><path class="cls-2" d="M526.55,175.76c4.48-.13,5,6.66.59,7-1.19.1-2.37.13-3.48.16-13.72.37-26.69,5.32-39.15,10.69-3.06,1.31-6.27,2.79-8.06,5.6,5.62-6.5,13-11.29,20.89-14.78s16.25-5.8,24.63-8A22.08,22.08,0,0,1,526.55,175.76Z" transform="translate(-188.92 -131.66)"/><path class="cls-6" d="M525.33,192.46c2.83.11,2.19,4.14-.66,4.14-.74,0-1.49,0-2.2-.06-8.65-.35-17.51,2-26.11,4.67-2.11.64-4.33,1.37-5.87,2.95a46.94,46.94,0,0,1,15.26-7.83,116.78,116.78,0,0,1,16.61-3.65A15.52,15.52,0,0,1,525.33,192.46Z" transform="translate(-188.92 -131.66)"/><path class="cls-7" d="M520.15,153.14c1.71-.3,1.84,2.18.14,2.56-.44.1-.89.17-1.32.25-5.21.89-10.2,3.44-15,6.1a8.13,8.13,0,0,0-3.13,2.51,28.77,28.77,0,0,1,8.12-6.64,69.41,69.41,0,0,1,9.46-4.29A8.74,8.74,0,0,1,520.15,153.14Z" transform="translate(-188.92 -131.66)"/><path class="cls-7" d="M475.83,272.35c-.39,1.68-2.73.84-2.42-.87.08-.45.19-.89.28-1.31,1.18-5.16.76-10.74.16-16.19a8.14,8.14,0,0,0-1.12-3.86,28.52,28.52,0,0,1,3,10.05,70.39,70.39,0,0,1,.31,10.37A10,10,0,0,1,475.83,272.35Z" transform="translate(-188.92 -131.66)"/><path class="cls-6" d="M519.07,261.14c1.33,2.25-1.94,2.1-3.37-.16-.38-.59-.72-1.18-1.06-1.77-4.05-6.89-10.21-13.7-16.42-20.29a22.43,22.43,0,0,0-5.1-4.39,79.49,79.49,0,0,1,13.35,11.41c4,4.14,7.51,8.5,10.95,12.84A21.65,21.65,0,0,1,519.07,261.14Z" transform="translate(-188.92 -131.66)"/><path class="cls-7" d="M400.74,261.14c-1.33,2.25,1.94,2.1,3.37-.16.38-.59.73-1.18,1.06-1.77,4.05-6.89,10.22-13.7,16.42-20.29a22.65,22.65,0,0,1,5.1-4.39,79.89,79.89,0,0,0-13.35,11.41c-4,4.14-7.51,8.5-10.95,12.84A21.65,21.65,0,0,0,400.74,261.14Z" transform="translate(-188.92 -131.66)"/><path class="cls-7" d="M444,272.35c.39,1.68,2.73.84,2.42-.87-.08-.45-.19-.89-.28-1.31C445,265,445.39,259.43,446,254a8.24,8.24,0,0,1,1.11-3.86,28.94,28.94,0,0,0-3,10.05,71.8,71.8,0,0,0-.31,10.37A9.18,9.18,0,0,0,444,272.35Z" transform="translate(-188.92 -131.66)"/><path class="cls-7" d="M506.53,170.06c1.7-.29,1.83,2.19.13,2.57l-1.32.24c-5.22.89-10.2,3.44-15,6.1a8.24,8.24,0,0,0-3.13,2.51,28.77,28.77,0,0,1,8.11-6.61,71.8,71.8,0,0,1,9.46-4.29A9.77,9.77,0,0,1,506.53,170.06Z" transform="translate(-188.92 -131.66)"/><path class="cls-7" d="M490.62,136.83c1.47-.91,2.52,1.34,1.09,2.33-.38.26-.77.49-1.14.72-4.5,2.78-8.18,7-11.63,11.26a8.22,8.22,0,0,0-2,3.5A29,29,0,0,1,482,145.5a73.69,73.69,0,0,1,7.16-7.52A9.87,9.87,0,0,1,490.62,136.83Z" transform="translate(-188.92 -131.66)"/><path class="cls-2" d="M546.45,218.88c4.32,2.22.67,8.33-3.77,6.3-1.18-.53-2.29-1.12-3.38-1.68-13.2-6.85-28.54-9.38-43.62-11.32-3.71-.47-7.65-.89-11.07.59,9.33-2.63,19.26-2.85,28.88-1.73s18.91,3.55,28.2,6.06A26,26,0,0,1,546.45,218.88Z" transform="translate(-188.92 -131.66)"/><path class="cls-6" d="M534.11,242.64c3.1,2.89-1.78,6.32-5,3.55-.86-.73-1.67-1.5-2.44-2.23-9.46-8.87-22-15.2-34.42-21-3.06-1.43-15.64-2.89-19-2.81,8.78.79,26.7,3.55,34.66,7.15A188.57,188.57,0,0,1,530.51,240,24.09,24.09,0,0,1,534.11,242.64Z" transform="translate(-188.92 -131.66)"/><path class="cls-2" d="M497.54,285.3c.38,4.23-5.51,3.55-6.08-.7-.16-1.12-.24-2.23-.34-3.29-1.12-12.93-6.22-26-11.62-38.62-1.31-3.1-9.72-12.59-12.27-14.78,6,6.43,17.53,20.42,21,28.43a189.14,189.14,0,0,1,8.38,24.52A24.92,24.92,0,0,1,497.54,285.3Z" transform="translate(-188.92 -131.66)"/><path class="cls-2" d="M501.09,142.29a.7.7,0,0,1-.37.11c-.23,0-.39-.24-.49-.45-.53-1.15-.23-2.64-1-3.6a12.19,12.19,0,0,0-2,3.31l-3.11-1a4.67,4.67,0,0,0,.59,3.55,4.78,4.78,0,0,0-1.46,1,1.63,1.63,0,0,0-.38,1.64,7.76,7.76,0,0,0,2.2.22,14.33,14.33,0,0,0,.23,4.08.71.71,0,0,0,.26.51c.24.15.53,0,.76-.12a7.16,7.16,0,0,0,2.56-2.71l1.18,2.76a1.22,1.22,0,0,0,.51.69.84.84,0,0,0,1-.33,2.45,2.45,0,0,0,.34-1l.44-2.62a.59.59,0,0,1,.14-.38.72.72,0,0,1,.45-.13c1.1,0,2.2,0,3.29,0,.19-.59-.4-1.12-.95-1.37s-1.23-.43-1.51-1c-.59-1.11.91-2.65.28-3.61C503.21,140.72,502,141.82,501.09,142.29Z" transform="translate(-188.92 -131.66)"/><path class="cls-7" d="M510.42,270.09a.75.75,0,0,1-.36.1c-.24,0-.41-.23-.5-.45-.53-1.14-.22-2.63-1-3.6a12.45,12.45,0,0,0-2,3.31l-3.1-1A4.65,4.65,0,0,0,504,272a5,5,0,0,0-1.46,1,1.64,1.64,0,0,0-.38,1.65,8.53,8.53,0,0,0,2.19.22,15,15,0,0,0,.23,4.07.8.8,0,0,0,.27.52.77.77,0,0,0,.76-.12,7.29,7.29,0,0,0,2.55-2.71l1.18,2.75a1.25,1.25,0,0,0,.52.69.83.83,0,0,0,1-.33,2.45,2.45,0,0,0,.34-1.05l.43-2.62a.49.49,0,0,1,.47-.51h.12c1.1,0,2.19,0,3.28,0,.19-.59-.39-1.12-1-1.36s-1.22-.43-1.51-1c-.59-1.11.91-2.65.28-3.6C512.57,268.5,511.38,269.61,510.42,270.09Z" transform="translate(-188.92 -131.66)"/><path class="cls-2" d="M536.71,184.42a.74.74,0,0,1-.36.12.68.68,0,0,1-.49-.45c-.54-1.16-.23-2.64-1-3.61a12.23,12.23,0,0,0-2,3.31l-3.1-1a4.59,4.59,0,0,0,.59,3.54,4.74,4.74,0,0,0-1.46,1,1.61,1.61,0,0,0-.38,1.63,7.73,7.73,0,0,0,2.19.22,14.31,14.31,0,0,0,.23,4.08.8.8,0,0,0,.27.52.75.75,0,0,0,.76-.13,7.19,7.19,0,0,0,2.55-2.7l1.18,2.76a1.26,1.26,0,0,0,.52.68.83.83,0,0,0,1-.33,2.45,2.45,0,0,0,.34-1l.43-2.62a.73.73,0,0,1,.14-.37.64.64,0,0,1,.46-.13c1.1,0,2.19,0,3.29,0,.19-.59-.39-1.13-1-1.37s-1.22-.43-1.5-1c-.59-1.12.91-2.66.27-3.61C538.87,182.84,537.67,183.93,536.71,184.42Z" transform="translate(-188.92 -131.66)"/><path class="cls-2" d="M431.59,282.9a1,1,0,0,1-.51.15c-.33,0-.56-.33-.69-.62-.74-1.61-.32-3.68-1.45-5a17.23,17.23,0,0,0-2.75,4.61l-4.32-1.34a6.39,6.39,0,0,0,.82,4.95,6.74,6.74,0,0,0-2,1.38,2.28,2.28,0,0,0-.53,2.29,10.84,10.84,0,0,0,3.05.31,20.05,20.05,0,0,0,.33,5.68.8.8,0,0,0,.74.85.78.78,0,0,0,.68-.31,9.89,9.89,0,0,0,3.55-3.77l1.61,3.84a1.66,1.66,0,0,0,.72,1,1.13,1.13,0,0,0,1.34-.46,3.28,3.28,0,0,0,.48-1.46l.59-3.65a.68.68,0,0,1,.84-.7c1.52,0,3.05-.06,4.58,0,.26-.81-.55-1.56-1.33-1.91s-1.71-.59-2.1-1.35c-.8-1.55,1.26-3.7.39-5C434.58,280.7,432.92,282.24,431.59,282.9Z" transform="translate(-188.92 -131.66)"/><path class="cls-2" d="M387.84,187a1,1,0,0,1-.5.15c-.33,0-.56-.32-.7-.63-.73-1.59-.31-3.67-1.44-5a17.18,17.18,0,0,0-2.75,4.62l-4.33-1.35a6.41,6.41,0,0,0,.82,5,6.48,6.48,0,0,0-2,1.39,2.27,2.27,0,0,0-.53,2.29,11.17,11.17,0,0,0,3.05.3,20.05,20.05,0,0,0,.33,5.68,1,1,0,0,0,.37.72,1.05,1.05,0,0,0,1.05-.17,10.19,10.19,0,0,0,3.55-3.77l1.61,3.83a1.69,1.69,0,0,0,.71,1,1.2,1.2,0,0,0,1.35-.47,3.41,3.41,0,0,0,.48-1.45l.59-3.66a.68.68,0,0,1,.84-.7c1.52,0,3.05-.06,4.57,0,.26-.81-.55-1.57-1.33-1.91s-1.7-.59-2.09-1.35c-.8-1.55,1.26-3.7.39-5C390.84,184.78,389.18,186.3,387.84,187Z" transform="translate(-188.92 -131.66)"/><path class="cls-7" d="M520.6,246.38a.53.53,0,0,1-.27.08c-.18,0-.3-.17-.37-.33-.4-.85-.17-1.95-.77-2.67a9.09,9.09,0,0,0-1.46,2.45l-2.3-.71a3.42,3.42,0,0,0,.43,2.63,3.47,3.47,0,0,0-1.07.74,1.2,1.2,0,0,0-.29,1.22,6.32,6.32,0,0,0,1.62.16,10.87,10.87,0,0,0,.18,3,.54.54,0,0,0,.19.38c.17.11.4,0,.6-.08a5.41,5.41,0,0,0,1.88-2l.86,2a.88.88,0,0,0,.38.51.58.58,0,0,0,.71-.25,1.76,1.76,0,0,0,.26-.77l.32-1.94a.35.35,0,0,1,.45-.37c.81,0,1.62,0,2.43,0,.13-.44-.3-.84-.71-1s-.91-.31-1.12-.72c-.42-.82.67-2,.21-2.67S521.28,246,520.6,246.38Z" transform="translate(-188.92 -131.66)"/><path class="cls-7" d="M461.15,280.69a.61.61,0,0,1-.27.08c-.17,0-.29-.18-.37-.34-.39-.85-.16-1.95-.76-2.66a8.79,8.79,0,0,0-1.46,2.44l-2.3-.7a3.44,3.44,0,0,0,.43,2.63,3.44,3.44,0,0,0-1.08.73,1.17,1.17,0,0,0-.28,1.22,5.91,5.91,0,0,0,1.62.16,10.55,10.55,0,0,0,.18,3,.56.56,0,0,0,.19.38.54.54,0,0,0,.56-.09,5.22,5.22,0,0,0,1.89-2l.85,2a1,1,0,0,0,.39.52.62.62,0,0,0,.71-.25,1.81,1.81,0,0,0,.26-.78l.32-1.94a.43.43,0,0,1,.1-.27.47.47,0,0,1,.34-.1l2.43,0c.14-.42-.29-.82-.7-1s-.91-.32-1.12-.72c-.42-.82.67-2,.21-2.67S461.86,280.34,461.15,280.69Z" transform="translate(-188.92 -131.66)"/><path class="cls-6" d="M403.65,160.62a.77.77,0,0,1-.27.08c-.18,0-.29-.18-.37-.33-.39-.85-.16-2-.76-2.67a8.7,8.7,0,0,0-1.46,2.45l-2.3-.72a3.44,3.44,0,0,0,.43,2.64,3.44,3.44,0,0,0-1.08.73,1.2,1.2,0,0,0-.28,1.21,5.52,5.52,0,0,0,1.62.17,10.22,10.22,0,0,0,.18,3,.58.58,0,0,0,.19.38c.17.11.39,0,.56-.09a5.42,5.42,0,0,0,1.89-2l.86,2a.91.91,0,0,0,.37.51.6.6,0,0,0,.72-.25,1.79,1.79,0,0,0,.25-.78l.32-1.94a.54.54,0,0,1,.11-.27.47.47,0,0,1,.34-.1c.81,0,1.62,0,2.43,0,.14-.43-.29-.83-.71-1s-.9-.31-1.11-.71c-.43-.82.67-2,.21-2.67C405.24,159.44,404.36,160.28,403.65,160.62Z" transform="translate(-188.92 -131.66)"/><path class="cls-6" d="M434.28,228.27a.5.5,0,0,1-.26.08c-.18,0-.3-.17-.38-.33-.39-.85-.16-2-.76-2.67a9.25,9.25,0,0,0-1.46,2.45l-2.33-.71a3.5,3.5,0,0,0,.43,2.64,3.44,3.44,0,0,0-1.08.73,1.19,1.19,0,0,0-.28,1.18,5.92,5.92,0,0,0,1.62.17,10.85,10.85,0,0,0,.18,3,.55.55,0,0,0,.2.39c.16.1.39,0,.55-.09a5.22,5.22,0,0,0,1.89-2l.86,2a.93.93,0,0,0,.38.51.59.59,0,0,0,.72-.25,1.89,1.89,0,0,0,.25-.77l.32-1.94a.49.49,0,0,1,.11-.28.43.43,0,0,1,.33-.09H438c.13-.43-.3-.84-.71-1s-.91-.31-1.11-.71c-.43-.83.66-2,.2-2.68S435,227.93,434.28,228.27Z" transform="translate(-188.92 -131.66)"/><path class="cls-6" d="M412,201.9a.5.5,0,0,1-.26.08c-.18,0-.3-.17-.38-.33-.39-.85-.16-2-.76-2.67a8.84,8.84,0,0,0-1.46,2.45l-2.3-.71a3.42,3.42,0,0,0,.43,2.63,3.64,3.64,0,0,0-1.08.74,1.18,1.18,0,0,0-.28,1.21,5.54,5.54,0,0,0,1.62.16,11.32,11.32,0,0,0,.17,3,.61.61,0,0,0,.21.39c.16.11.38,0,.55-.1a5.26,5.26,0,0,0,1.89-2l.86,2a.88.88,0,0,0,.38.51.59.59,0,0,0,.71-.24,2,2,0,0,0,.26-.78l.32-1.94a.48.48,0,0,1,.1-.28.52.52,0,0,1,.34-.1c.81,0,1.62,0,2.43,0,.14-.43-.29-.82-.7-1s-.91-.32-1.11-.72c-.43-.82.66-2,.2-2.67S412.75,201.55,412,201.9Z" transform="translate(-188.92 -131.66)"/><path class="cls-6" d="M507.44,208.11a.62.62,0,0,1-.26.09c-.18,0-.3-.18-.37-.34-.39-.85-.17-2-.77-2.67a9.41,9.41,0,0,0-1.46,2.46l-2.31-.72a3.42,3.42,0,0,0,.43,2.63,3.64,3.64,0,0,0-1.08.74,1.2,1.2,0,0,0-.28,1.21,5.92,5.92,0,0,0,1.62.17,11.24,11.24,0,0,0,.17,3,.64.64,0,0,0,.2.39.58.58,0,0,0,.56-.1,5.26,5.26,0,0,0,1.89-2l.86,2a.88.88,0,0,0,.38.51.58.58,0,0,0,.71-.25,1.9,1.9,0,0,0,.26-.77l.32-1.94a.48.48,0,0,1,.1-.28.46.46,0,0,1,.34-.09c.81,0,1.63,0,2.44,0,.13-.43-.3-.84-.71-1s-.91-.32-1.11-.72c-.43-.82.66-2,.2-2.67S508.18,207.76,507.44,208.11Z" transform="translate(-188.92 -131.66)"/><path class="cls-7" d="M461.15,202.92a.5.5,0,0,1-.27.08c-.17,0-.29-.17-.37-.33-.39-.85-.16-1.95-.76-2.67a9,9,0,0,0-1.46,2.45l-2.3-.71a3.45,3.45,0,0,0,.43,2.64,3.44,3.44,0,0,0-1.08.73,1.16,1.16,0,0,0-.28,1.21,5.92,5.92,0,0,0,1.62.17,10.5,10.5,0,0,0,.18,3,.58.58,0,0,0,.19.39.62.62,0,0,0,.56-.09,5.36,5.36,0,0,0,1.89-2l.85,2a.94.94,0,0,0,.39.51.58.58,0,0,0,.71-.25,1.76,1.76,0,0,0,.26-.77l.32-1.94a.48.48,0,0,1,.1-.28.46.46,0,0,1,.34-.09c.81,0,1.62,0,2.43,0,.14-.43-.29-.84-.7-1s-.91-.31-1.12-.72c-.42-.82.67-2,.21-2.67S461.86,202.57,461.15,202.92Z" transform="translate(-188.92 -131.66)"/><path class="cls-8" d="M446.63,209.24a.56.56,0,0,1-.27.08c-.18,0-.3-.17-.37-.33-.39-.85-.17-2-.77-2.67a9.37,9.37,0,0,0-1.48,2.44l-2.3-.71a3.43,3.43,0,0,0,.44,2.63,3.64,3.64,0,0,0-1.08.74,1.17,1.17,0,0,0-.29,1.21,5.61,5.61,0,0,0,1.63.16,10.55,10.55,0,0,0,.17,3,.51.51,0,0,0,.2.38.59.59,0,0,0,.56-.08,5.52,5.52,0,0,0,1.89-2l.85,2a.93.93,0,0,0,.38.51.59.59,0,0,0,.72-.25,1.75,1.75,0,0,0,.25-.77l.32-1.94a.49.49,0,0,1,.11-.28.51.51,0,0,1,.34-.1c.81,0,1.62,0,2.43,0,.14-.43-.29-.83-.71-1s-.91-.32-1.11-.72c-.42-.82.67-2,.2-2.67S447.34,208.89,446.63,209.24Z" transform="translate(-188.92 -131.66)"/><path class="cls-7" d="M433.1,171a.65.65,0,0,1-.27.08c-.18,0-.3-.18-.37-.34-.39-.84-.16-2-.77-2.66a9.3,9.3,0,0,0-1.46,2.44l-2.3-.71a3.46,3.46,0,0,0,.44,2.64,3.44,3.44,0,0,0-1.08.73,1.17,1.17,0,0,0-.28,1.22,5.87,5.87,0,0,0,1.62.16,10.55,10.55,0,0,0,.17,3,.53.53,0,0,0,.2.38c.16.11.39,0,.56-.09a5.44,5.44,0,0,0,1.89-2l.85,2a1,1,0,0,0,.38.52.6.6,0,0,0,.72-.25,1.79,1.79,0,0,0,.25-.78l.32-1.94a.37.37,0,0,1,.45-.37l2.43,0c.13-.42-.29-.83-.71-1s-.91-.32-1.11-.72c-.43-.82.67-2,.2-2.67S433.79,170.65,433.1,171Z" transform="translate(-188.92 -131.66)"/><path class="cls-8" d="M459.76,220.91a.52.52,0,0,1-.27.07c-.18,0-.29-.17-.37-.33-.39-.85-.17-2-.77-2.66a9.3,9.3,0,0,0-1.46,2.44l-2.29-.71a3.38,3.38,0,0,0,.43,2.63,3.64,3.64,0,0,0-1.08.74,1.17,1.17,0,0,0-.28,1.22,5.5,5.5,0,0,0,1.62.15,10.64,10.64,0,0,0,.17,3,.58.58,0,0,0,.19.38.57.57,0,0,0,.6-.09,5.52,5.52,0,0,0,1.89-2l.85,2a1,1,0,0,0,.38.52.65.65,0,0,0,.72-.25,1.79,1.79,0,0,0,.25-.78l.32-1.94a.5.5,0,0,1,.11-.27.45.45,0,0,1,.34-.11c.81,0,1.62,0,2.43,0,.14-.43-.29-.82-.71-1s-.9-.32-1.11-.72c-.43-.82.67-2,.2-2.66C461.35,219.74,460.47,220.55,459.76,220.91Z" transform="translate(-188.92 -131.66)"/><path class="cls-10" d="M488.75,461.55a8.7,8.7,0,0,0,1-4.54,19.84,19.84,0,0,0-.29-2,33.94,33.94,0,0,0-.77-3.43c-.36-1.18-.85-2.34-1.28-3.5-.64-1.77-1.12-3.6-1.63-5.4,0-.1-.06-.2-.08-.3-.12-.4-.24-.8-.36-1.18a2.3,2.3,0,0,1,.73.18,1.63,1.63,0,0,1-.33-.59.2.2,0,0,0,0-.11,17.8,17.8,0,0,1-.65-4.47l.46-.2a11.65,11.65,0,0,0-.22-4.44c.18-1.62.43-3.24.64-4.85.11-.75.2-1.49.28-2.24s.07-2-.74-2.19c-.17-1.26-.24-2.53-.3-3.8l-.69-13.28c-.23-4.44-.46-8.87-.56-13.33v-.91a34.75,34.75,0,0,0-.74-7.54,10.44,10.44,0,0,0,0-1.37,8.48,8.48,0,0,0-.11-1.13,7.56,7.56,0,0,0-.31-1.33,8.16,8.16,0,0,0-1.6-2.88,7.42,7.42,0,0,0-5.59-2.75h-.22c-.19-.27-.39-.52-.6-.78a15.86,15.86,0,0,0-1.29-1.43,12.27,12.27,0,0,0-1.62-1.34c.28-.59.59-1.25.89-1.86.39-.8.79-1.56,1.18-2.23a11.12,11.12,0,0,0,2.15-.94,13.51,13.51,0,0,0,6.81-11.88,14.55,14.55,0,0,0-.29-2.87,14,14,0,0,0-1.23-3.5c.07-.2.14-.4.2-.59l0-.13a6.06,6.06,0,0,0-.25-3.55,8.56,8.56,0,0,0-.56-1.28c-.14-.27-.29-.55-.45-.81l-.26-.39c-.17-.26-.34-.51-.52-.75l-.16-.2c-.34-.46-.71-.89-1.09-1.31a12.87,12.87,0,0,0-1.78-1.6,7.72,7.72,0,0,0-3-1.36,8.59,8.59,0,0,0-1.89-.18,11.14,11.14,0,0,0-1.15,0c-.76,0-1.53.1-2.29.09a6.34,6.34,0,0,1-.76,0,29.57,29.57,0,0,1-4-.82l-.66-.15-.67-.11a12.34,12.34,0,0,0-1.82-.1h-.59a14,14,0,0,0-1.82.18l-.59.1a17.44,17.44,0,0,0-4.42,1.31c-.19.08-.37.18-.55.27l-.11.06-.44.25-.09,0-.46.3,0,0c-4.36,3-6.94,8.49-7.59,14a33,33,0,0,0-.18,5.26,80.76,80.76,0,0,0,2,13.26l1.18,5.51c.05.25.11.49.15.74l-.13.1a12.24,12.24,0,0,0-3.48,4.92,18.11,18.11,0,0,0-1.07,6.88h0c0,.59,0,1.18,0,1.81s0,1.18.09,1.81l-.09.75c-.1.89-.19,1.77-.24,2.69-.05.72-.08,1.44-.09,2.17-.1,4.62.37,9.24.22,13.86v.48c-.11,2.59-.38,5.18-.47,7.76a34.89,34.89,0,0,0,0,4.09,54.53,54.53,0,0,0,2.21,10.64l1.38,5a1.38,1.38,0,0,0,.35.69,1.07,1.07,0,0,0,.78.16c-.16.33-.3.67-.44,1a46.35,46.35,0,0,0-1.87,5.22,20,20,0,0,0-.82,4.06,16.83,16.83,0,0,0,0,1.74v0a33.12,33.12,0,0,0,1,5.68q1.32,5.52,2.62,11v.11c.61,2.55,1.22,5.09,1.82,7.64,1.19,5.08,2.43,10.2,2.65,15.44a33.22,33.22,0,0,1-.55,7.84,68.69,68.69,0,0,0-.68,23.54,117,117,0,0,0,4.29,19.39l.46-.23c.3-.15.6-.3.9-.43l-.19.35c-.05.09-.1.16-.14.25-.5.88-1,1.78-1.4,2.69-.08.14-.15.29-.22.44a21.24,21.24,0,0,0-.94,2.32,25.25,25.25,0,0,0-.92,6.84,3.5,3.5,0,0,0,.11,1.33,2.8,2.8,0,0,0,2,1.49,12.91,12.91,0,0,0,3.5.43,32.45,32.45,0,0,0,3.81-.32.56.56,0,0,0,0,.12s0,0,0,0a2.76,2.76,0,0,0,2,1.48,12.39,12.39,0,0,0,3.93.42c2.17-.06,4.37-.48,6.54-.69,3.44-.33,6.94-.09,10.31-.9a4.91,4.91,0,0,0,1.43-.52,4.73,4.73,0,0,0,1.77-2.5,3.8,3.8,0,0,0,.21-.82,2.82,2.82,0,0,0-2-2.67,15,15,0,0,0-3.42-.46,10.61,10.61,0,0,1-6.3-3,11.41,11.41,0,0,1-2.51-3.84l1.09.42a4.09,4.09,0,0,1-.18-.49,5.24,5.24,0,0,1-.23-1.18,5.48,5.48,0,0,1,0-1.28,19.17,19.17,0,0,1,1.47-5.09q2.58-6.57,4.86-13.26c3.86-11.23,7.14-23,7.1-34.94,0-4.32-.8-8.42-.95-12.74-.1-2.92.29-5.83.34-8.74v-.89q0-.68,0-1.35A7.87,7.87,0,0,0,488.75,461.55Zm-36.14-38.07a3.35,3.35,0,0,1-1.06,1.7,4.83,4.83,0,0,0-.37.42l-.3.38c-.1-1.48-.21-3-.32-4.44l-.07-1,.18.14.14.13a12.53,12.53,0,0,1,1.32,1.41,2.07,2.07,0,0,1,.46.85,1.09,1.09,0,0,1,0,.36ZM474,500a13.92,13.92,0,0,1-1.1,3.73,71.2,71.2,0,0,0-5.64,17.68A82,82,0,0,0,466,533.6c0,2.79.05,5.69-.92,8.27l-.27.64.46-.07-.35.65-.06.11-.07.12-.12-.21a11.74,11.74,0,0,1-1.24-3.25c-.05-.23-.1-.47-.13-.7v0a1.6,1.6,0,0,0-.64-.12,114.15,114.15,0,0,1-1.6-26.3,12.62,12.62,0,0,1,.44-3.17c.28-.88.76-1.69,1.12-2.54a18.66,18.66,0,0,0,1.12-4.47,63.3,63.3,0,0,0,.69-11.83c-.13-3.73.73-7.44,1.47-11.15.07-.33.13-.65.19-1,.28-1.45.52-2.89.66-4.33l0-.36c.38.59.74,1.22,1.09,1.84a54.12,54.12,0,0,1,5.65,15.63A25.26,25.26,0,0,1,474,500Z" transform="translate(-188.92 -131.66)"/><path class="cls-2" d="M442.87,386.12l-.59,4.67c-.21,1.58-.42,3.16-.52,4.73-.37,5.29.31,10.59.13,15.89-.13,4.08-.78,8.15-.47,12.21a51.66,51.66,0,0,0,2.32,10.55l1.45,4.95a1.27,1.27,0,0,0,.37.68,1.28,1.28,0,0,0,.92.15l6.44-.59c-.41-1.89-.87-3.86-1.09-5.78-.18-1.52-.28-3.05-.39-4.58-.34-4.76-.73-9.51-1.12-14.26l-.67-8.32a63,63,0,0,0-1.5-10.79A21.63,21.63,0,0,0,442.87,386.12Z" transform="translate(-188.92 -131.66)"/><path class="cls-4" d="M442.87,386.12l-.59,4.67c-.21,1.58-.42,3.16-.52,4.73-.37,5.29.31,10.59.13,15.89-.13,4.08-.78,8.15-.47,12.21a51.66,51.66,0,0,0,2.32,10.55l1.45,4.95a1.27,1.27,0,0,0,.37.68,1.28,1.28,0,0,0,.92.15l6.44-.59c-.41-1.89-.87-3.86-1.09-5.78-.18-1.52-.28-3.05-.39-4.58-.34-4.76-.73-9.51-1.12-14.26l-.67-8.32a63,63,0,0,0-1.5-10.79A21.63,21.63,0,0,0,442.87,386.12Z" transform="translate(-188.92 -131.66)"/><path class="cls-3" d="M454.34,544.92a20.17,20.17,0,0,0-1,2.3,24.59,24.59,0,0,0-1,6.79,3.22,3.22,0,0,0,.13,1.31,2.85,2.85,0,0,0,2.07,1.47c3.55,1,7.33.06,11-.27s7.29-.09,10.82-.88a5.7,5.7,0,0,0,1.5-.53,4.63,4.63,0,0,0,1.9-2.47,2.47,2.47,0,0,0-1.87-3.46,15.69,15.69,0,0,0-3.59-.46,11.31,11.31,0,0,1-10.05-9.46c0-.26-5.95-.1-6.58.24a5.38,5.38,0,0,0-1.58,2.07C455.51,542.66,454.9,543.78,454.34,544.92Z" transform="translate(-188.92 -131.66)"/><path class="cls-4" d="M454.34,544.92a20.17,20.17,0,0,0-1,2.3,24.59,24.59,0,0,0-1,6.79,3.22,3.22,0,0,0,.13,1.31,2.85,2.85,0,0,0,2.07,1.47c3.55,1,7.33.06,11-.27s7.29-.09,10.82-.88a5.7,5.7,0,0,0,1.5-.53,4.63,4.63,0,0,0,1.9-2.47,2.47,2.47,0,0,0-1.87-3.46,15.69,15.69,0,0,0-3.59-.46,11.31,11.31,0,0,1-10.05-9.46c0-.26-5.95-.1-6.58.24a5.38,5.38,0,0,0-1.58,2.07C455.51,542.66,454.9,543.78,454.34,544.92Z" transform="translate(-188.92 -131.66)"/><path class="cls-3" d="M464.14,546.67a19.29,19.29,0,0,0-1,2.29,24.26,24.26,0,0,0-.95,6.79,3.28,3.28,0,0,0,.12,1.32,2.85,2.85,0,0,0,2.08,1.47c3.55,1,7.32.05,11-.28s7.29-.09,10.83-.88a5.81,5.81,0,0,0,1.5-.52,4.72,4.72,0,0,0,1.89-2.48,2.47,2.47,0,0,0-1.86-3.46,15.77,15.77,0,0,0-3.6-.45,11.35,11.35,0,0,1-10-9.46c0-.27-5.95-.11-6.58.23a5.38,5.38,0,0,0-1.58,2.07C465.32,544.41,464.71,545.52,464.14,546.67Z" transform="translate(-188.92 -131.66)"/><path class="cls-11" d="M489.71,488.31c.07,11.87-3.38,23.48-7.43,34.63q-2.4,6.63-5.1,13.14c-1.06,2.58-2.26,5.43-1.12,8a19.39,19.39,0,0,0-10.12-1.42c1.32-2.69,1.18-5.81,1.26-8.81a75.88,75.88,0,0,1,1.3-12.12,67.73,67.73,0,0,1,5.91-17.51,13.26,13.26,0,0,0,1.15-3.7,23.39,23.39,0,0,0-.48-8.54,50.83,50.83,0,0,0-7.1-17.36,2.07,2.07,0,0,1,0,.35,52,52,0,0,1-.89,5.26c-.78,3.68-1.68,7.35-1.54,11.05a60.49,60.49,0,0,1-.73,11.72,17.9,17.9,0,0,1-1.18,4.43c-.38.85-.87,1.65-1.19,2.53a11.85,11.85,0,0,0-.46,3.13,106,106,0,0,0,1.83,26.78,17.12,17.12,0,0,0-8.87,2,109.05,109.05,0,0,1-4.67-19.28,64,64,0,0,1,.72-23.32,31.77,31.77,0,0,0,.59-7.78c-.24-5.19-1.52-10.27-2.79-15.31l-1.93-7.68q-1.36-5.48-2.75-10.94a23.65,23.65,0,0,1-1-7.4,18.47,18.47,0,0,1,.86-4A44.61,44.61,0,0,1,450,433.71c10.58.59,21.28-.4,31.87-1.19a1.59,1.59,0,0,1,2,1,1.74,1.74,0,0,1,.09.64l4,22.5a57.29,57.29,0,0,1,1.13,9.51c0,3.18-.5,6.36-.38,9.54C488.87,480,489.68,484,489.71,488.31Z" transform="translate(-188.92 -131.66)"/><path class="cls-4" d="M468,475a49.18,49.18,0,0,1-.89,5.25c-2.3-4-4.78-7.87-6.9-12-.54-1-1.06-2.11-1.59-3.18L457,461.9c-.29-.59-.59-1.18-.85-1.77a13,13,0,0,1-1-2.77c.76-.14,2.66,1.94,3.24,2.48a46,46,0,0,1,3.31,3.65,40.56,40.56,0,0,1,3.44,4.5A22,22,0,0,1,468,475Z" transform="translate(-188.92 -131.66)"/><path class="cls-12" d="M476.78,365.68S470.91,375.05,472,377s-18.52-1.74-18.52-1.74,10.64-9.37,9.58-13.29S476.78,365.68,476.78,365.68Z" transform="translate(-188.92 -131.66)"/><circle class="cls-12" cx="282.63" cy="223.57" r="13.29"/><path class="cls-2" d="M477,375.48a13.55,13.55,0,0,0-5.6-4.51,19.94,19.94,0,0,0-4-1l-5.33-.93a6.76,6.76,0,0,0-3.89.09,6,6,0,0,0-1.66,1.22c-1.84,1.7-3.63,3.58-5.91,4.56-.64.27-1.3.47-1.93.74a11.18,11.18,0,0,0-5.62,6c-1.15,2.72-1.18,5.66-1.09,8.61a15.51,15.51,0,0,0,.3,3,19.6,19.6,0,0,0,1,2.78,49.26,49.26,0,0,1,1.84,5.91q2.07,7.89,3.43,16a6.09,6.09,0,0,0,.66,2.21,7.55,7.55,0,0,0,1.84,1.77,13,13,0,0,1,1.53,1.53,2.13,2.13,0,0,1,.49.83c.17.8-.53,1.47-1.1,2.05a9.91,9.91,0,0,0-2.48,4.33,1.64,1.64,0,0,0-.39,1.18,1.37,1.37,0,0,1-.38,1.72,2.9,2.9,0,0,0-.55,2.36,37.15,37.15,0,0,0,13,3c1.1.05,2.2.05,3.3.19.77.09,1.54.26,2.32.35a24.24,24.24,0,0,0,3.41.08c5.91-.11,12-.26,17.44-2.61.5-2.78-.59-5.62-1.29-8.37-1.1-4.37-1.37-8.87-2.19-13.33-.56-3-1.38-6-1.84-9.06a21.63,21.63,0,0,1,.26-9.17c.74-2.64,1-5.32,1.73-7.93s1.32-5.46.45-8.05A8.21,8.21,0,0,0,477,375.48Z" transform="translate(-188.92 -131.66)"/><path class="cls-11" d="M483.51,348.18c.65-2.37-.62-4.81-2.14-6.73s-3.75-3.92-6.32-4.43c-2.1-.43-4.27.08-6.4-.09-1.89-.15-3.7-.82-5.58-1.07a17.74,17.74,0,0,0-5.09.19,19.05,19.05,0,0,0-4.64,1.3c-5.66,2.51-9,8.7-9.75,14.84s.6,12.32,1.93,18.37l1.21,5.45a109.4,109.4,0,0,1,2.86,17.21,36.41,36.41,0,0,1-2.68,17.08,36.75,36.75,0,0,0,16.88-19.11c.86-2.25,1.5-4.58,2.45-6.79.82-1.9,1.87-3.7,2.59-5.64A18.47,18.47,0,0,0,470,371.9c0-1.77-.34-3.5-.29-5.26a7.23,7.23,0,0,1,1.72-4.86,13.38,13.38,0,0,1,4-2.36,16.59,16.59,0,0,0,5.59-4.67,5.1,5.1,0,0,0,1.15-2.95C482.41,350.47,483.17,349.43,483.51,348.18Z" transform="translate(-188.92 -131.66)"/><path class="cls-12" d="M483.53,448a36,36,0,0,0,.18,4.14c.23,1,.75,1.92,1.06,2.9a13.84,13.84,0,0,1,.46,3.5c0,1,0,2.2-.91,2.66a12.11,12.11,0,0,1-1.25.38c-.4.17-.73.66-.51,1s.63.32,1,.39.75.44.55.74a.75.75,0,0,1-.32.21,3.49,3.49,0,0,0-1,.49,1.06,1.06,0,0,0-.43,1,.62.62,0,0,0,.75.46l.14-.05A2.81,2.81,0,0,0,483,467c1.4.59,3-.19,4.3-1A14.35,14.35,0,0,0,488.9,465a8.28,8.28,0,0,0,3.2-7,15,15,0,0,0-.32-2,30.68,30.68,0,0,0-.8-3.41c-.38-1.18-.9-2.31-1.34-3.47-.95-2.46-1.56-5-2.42-7.55a1.16,1.16,0,0,0-.41-.65,1.09,1.09,0,0,0-.59-.11,10.17,10.17,0,0,0-2.86.26,2.93,2.93,0,0,0-1.78,1.12c-.27.59.16,1,.4,1.47A12.41,12.41,0,0,1,483.53,448Z" transform="translate(-188.92 -131.66)"/><path class="cls-4" d="M482.63,381.25a4,4,0,0,1,.7,1c1.89,3.43,1.91,7.54,2,11.45.1,4.41.35,8.82.59,13.22l.73,13.16c.06,1.26.13,2.52.31,3.77.84.21.88,1.31.79,2.18-.6,5.37-2.13,10.9-.54,16.07a1.51,1.51,0,0,0,.37.72,4.29,4.29,0,0,0-2.46,0c-.79.17-1.55.46-2.36.64-1,.23-2.14.32-2.82,1.09a55.92,55.92,0,0,1-1.84-7.09c-.37-2.19-.48-4.47-1.36-6.51-.36-.82-.85-1.58-1.29-2.36-2.3-4.14-3.43-8.76-4.54-13.34a19.69,19.69,0,0,1-.35-6.63,22,22,0,0,0,.28-3,24.73,24.73,0,0,0-.42-3.21,21.45,21.45,0,0,1,.64-9.29c.82-2.8,1.55-5.74,3.28-8.09S479.71,381.29,482.63,381.25Z" transform="translate(-188.92 -131.66)"/><path class="cls-2" d="M483.28,380.8a4,4,0,0,1,.71,1c1.89,3.43,1.91,7.53,2,11.45.1,4.41.34,8.81.59,13.22l.72,13.16c.07,1.26.14,2.52.31,3.76.86.22.89,1.32.79,2.18-.59,5.38-2.12,10.91-.53,16.08a1.52,1.52,0,0,0,.37.71,4.29,4.29,0,0,0-2.46,0c-.79.16-1.55.45-2.36.63-1,.23-2.14.33-2.82,1.09a54.28,54.28,0,0,1-1.84-7.09c-.37-2.19-.47-4.46-1.37-6.5-.36-.82-.84-1.58-1.27-2.37-2.31-4.14-3.44-8.76-4.54-13.33a19.47,19.47,0,0,1-.36-6.63,24,24,0,0,0,.28-3.05,24.73,24.73,0,0,0-.42-3.21,21.45,21.45,0,0,1,.64-9.29c.83-2.8,1.55-5.74,3.28-8.09S480.4,380.85,483.28,380.8Z" transform="translate(-188.92 -131.66)"/><g class="cls-13"><path d="M481.37,341.45c-1.64-2.06-3.75-3.92-6.32-4.43-2.1-.43-4.27.08-6.4-.09-1.89-.15-3.7-.82-5.58-1.07a17.74,17.74,0,0,0-5.09.19,19.05,19.05,0,0,0-4.64,1.3,14,14,0,0,0-2.3,1.3,20,20,0,0,1,4.11-1.07,17.73,17.73,0,0,1,5.09-.19c1.88.24,3.69.92,5.58,1.07,2.13.16,4.3-.34,6.39.08a11.25,11.25,0,0,1,6.32,4.44c1.52,1.91,2.79,4.36,2.15,6.72-.34,1.25-1.13,2.33-1.35,3.62a5.22,5.22,0,0,1-1.14,2.95,16.79,16.79,0,0,1-4,3.76l1.27-.6a16.59,16.59,0,0,0,5.6-4.66,5.1,5.1,0,0,0,1.14-3c.23-1.32,1-2.36,1.35-3.61C484.16,345.82,482.89,343.37,481.37,341.45Z" transform="translate(-188.92 -131.66)"/><path d="M471.42,361.78a6.41,6.41,0,0,1,.74-.64,11.57,11.57,0,0,0-3.55,2.17,7.27,7.27,0,0,0-1.71,4.86c0,1.75.24,3.5.28,5.26a18.26,18.26,0,0,1-1.18,6.86c-.73,1.94-1.77,3.73-2.59,5.64-1,2.21-1.59,4.54-2.45,6.78A36.82,36.82,0,0,1,447,410.08a2.14,2.14,0,0,0-.1.22,36.75,36.75,0,0,0,16.88-19.11c.86-2.25,1.5-4.58,2.45-6.79.82-1.9,1.87-3.7,2.59-5.64A18.47,18.47,0,0,0,470,371.9c0-1.77-.34-3.5-.29-5.26A7.23,7.23,0,0,1,471.42,361.78Z" transform="translate(-188.92 -131.66)"/></g><path class="cls-14" d="M611.8,387.9a10.88,10.88,0,0,0-.26-2.13c-.54-2-1.74-4.41-3.71-5a30.67,30.67,0,0,1-5.88-2.48v-.54c-.16-4.11.37-8.28.29-12.37V365a25.61,25.61,0,0,0-.74-5.71c-.59-2.24-1.56-4.39-1.82-6.69a3.12,3.12,0,0,0,0-.44c-.11-1.54,0-3.12,0-4.66v-.05a9,9,0,0,0-.64-3.4,8.44,8.44,0,0,0-5-4.32,26.67,26.67,0,0,0-6.66-1.18c-2.84-.23-12-1.32-15.23,1.22a3.3,3.3,0,0,0-.59.59h0a3.21,3.21,0,0,0-.19.31l0,0c-.06.13-.11.26-.16.39h0a3.13,3.13,0,0,0-.1.44v1.07c0,.53.12,1.06.12,1.59a3.43,3.43,0,0,1-.07.78,5.59,5.59,0,0,1-1,1.91l-.11.16-.19.27-.15.25c0,.08-.1.14-.14.21a3,3,0,0,0-.15.31s-.07.11-.09.17a4.09,4.09,0,0,0-.18.49,3.38,3.38,0,0,0,0,1.58l.05.22h0a6.18,6.18,0,0,0,.75,1.63c.15.24.31.48.48.71l.41.56,0,.45a11.35,11.35,0,0,0,.17,3.63,12.24,12.24,0,0,0,4.43,7.19c0,.2,0,.4.05.59a37,37,0,0,1-.13,6.9c-.05.52-.12,1-.19,1.56s-.12.87-.2,1.3a5.94,5.94,0,0,1-2.58-.2c-.39-.17-.78-.32-1.18-.45-1.72-.43-3.48,1.28-5.18.76a.75.75,0,0,1-.08.24,2.32,2.32,0,0,0-1.18-.35,4.36,4.36,0,0,1-2.57-1.47l-2.25-2.13a2.27,2.27,0,0,1-.39-.43,3.21,3.21,0,0,1-.27-.73,8.45,8.45,0,0,0-2.18-3.13,1.54,1.54,0,0,0-.65-.47,1.4,1.4,0,0,0-.29,0,2.2,2.2,0,0,0-.2-.23,4.62,4.62,0,0,0-.49-.5c-1.07-1-1.18-1.84-2.11-2.95a26.44,26.44,0,0,1-2.11-3.17l-.11-.18c-.07-.62-.18-1.25-.31-1.9-.08-.37-.16-.74-.25-1.1h0a23.9,23.9,0,0,0-1-3.2l-1.18-2.62-.14.14c-.85-1.28-1.77-2-2.59-1.81-1.38.29-2.06,3-1.84,6.45l.47,3.55a.77.77,0,0,0,.07.26,6.11,6.11,0,0,0-.13,1.28,1,1,0,0,0,.19.59,8.58,8.58,0,0,1,.51.72,5.34,5.34,0,0,1,.29.6,3.48,3.48,0,0,1,.29.84v.05a2.53,2.53,0,0,1,0,.55c0,.26-.11.5-.12.75a2,2,0,0,0,.21.89,5.84,5.84,0,0,0,.35.65l3,5,.6,1,0,.05.17.27a2.12,2.12,0,0,0,.59.64,5,5,0,0,0,.07.54,10.87,10.87,0,0,0,.38,1.69v.05a9.87,9.87,0,0,0,.51,1.31c.1.22.21.44.33.65a20.9,20.9,0,0,0,2.79,3.62l1.41,1.58c1.39,1.55,2.78,3.1,4.29,4.54a5.8,5.8,0,0,0,1.91,1.34,2.15,2.15,0,0,0,2.15-.32v2.2h.12a1.47,1.47,0,0,1,.91.65.81.81,0,0,1,.1.51,2.83,2.83,0,0,1-.19.76,48.74,48.74,0,0,1-4.38,9.26l.35.22a18.42,18.42,0,0,1,3.32,2.57,16.63,16.63,0,0,1,1.91,2.59c0,.13,0,.26,0,.38,0,.31.06.59.08.92.43,7-2.29,14-4.73,20.75a16.09,16.09,0,0,0-1.42,5.88,12.25,12.25,0,0,0-1.32,1,8.88,8.88,0,0,1,.24,3.75,6.69,6.69,0,0,1-.49,2.37c-.26.52-.54,1-.85,1.52-1.53,2.7-1.87,5.91-2.18,9-.18,1.87.54,4.14-.3,5.81a23.73,23.73,0,0,0-3,9.09,9.4,9.4,0,0,1-.27,2.12c-.18.6-.51,1.1-.68,1.68a6.93,6.93,0,0,0-.11,2.36,22.49,22.49,0,0,1-1.25,8.34c-.73,2.11-1.55,4.37-1,6.54a9.17,9.17,0,0,0-2.5,5.49,9.1,9.1,0,0,1-.19,1.57,7.7,7.7,0,0,1-.71,1.51,13.18,13.18,0,0,0-1.61,7.09,19.73,19.73,0,0,0-3.18,8.33c-.53,3-.76,6-1.44,8.86-.89,3.86-2.52,7.76-2.84,11.7-1.91,1.23-2.74,3.6-3.11,5.84s-.42,4.59-1.36,6.66c-.36.81-.86,1.55-1.26,2.33a7.55,7.55,0,0,0-.39.81,14.91,14.91,0,0,0-.71,2.7,10.61,10.61,0,0,0-.18,4.44,5.9,5.9,0,0,1-1.41,1.12l-.32.2c.06-.25.12-.5.16-.75a2.29,2.29,0,0,1,.07-.36c-1.52,1.38-4.29.9-5.51,2.56a2.49,2.49,0,0,0,.6,3.42,3,3,0,0,0,.74.36l.48.17c3,.95,6,1.9,9,1.39a2.53,2.53,0,0,0,1-.32,3.35,3.35,0,0,0,.95-1.1c.45-.71.89-1.42,1.33-2.13v0l.25.07a29,29,0,0,0,3.07.7v.08c.11.92.19,1.84.23,2.76l.2,0c.59.09,1.18.06,1.46-.43a1.33,1.33,0,0,0,.1-.65c0-.4.06-.92.09-1.46v-.09h.21a11.09,11.09,0,0,0,5.14-1.06c-.48-3.94.59-7.82,1.92-11.61.43-1.24.9-2.47,1.34-3.7,1.91-5.21,3.55-10.52,5.2-15.83,1.18-3.74,2.49-7.35,3.65-11.1q2.19-7.1,4.39-14.21c.64-2.09,1.28-4.14,2-6.21a95.91,95.91,0,0,1,5.48-12.2c.59-1.12,1.18-2.22,1.66-3.38.6-1.41,1-2.89,1.49-4.35a67.2,67.2,0,0,1,3.71-8.74c0-.08.07-.15.11-.22a.27.27,0,0,0,0,.19c0,.05,0,.12,0,.18.45,1.84.89,3.7,1.18,5.57a22.36,22.36,0,0,1,.11,7.3,23.45,23.45,0,0,0-.76,5,9,9,0,0,0,.44,2.36l.05.16c.38,1.18.9,2.36,1.28,3.54,0,.05,0,.1,0,.15s.09.26.12.39a24.91,24.91,0,0,1,.66,5.09c.17,2.66,1.61,5.64.6,8.11-3.17,7.81-1.64,16.63-3.44,24.86-.93,4.21-3.77,8.16-3.55,12.47.13,2.36.31,4.73.59,7.09.08.69.15,1.38.24,2.08a8.68,8.68,0,0,0,.65,2.69,11.23,11.23,0,0,0,.81,1.33c-.26.1-.48.36-.67.92a3.75,3.75,0,0,0,.75,3.66l.06.06a2.46,2.46,0,0,0,.51.39,5.46,5.46,0,0,0,1.7.59,9.06,9.06,0,0,0,2.48.35,5,5,0,0,0,.65-.08H583l.19.08c.86.35,1.73.67,2.61.93v.07l.07.65a1,1,0,0,0,.21.59.26.26,0,0,0,.09.09,1,1,0,0,0,.48.09h3.21v-.81H590a2.58,2.58,0,0,0,2-.66,3.26,3.26,0,0,0,.59-1.23q1.25-4.24,2.48-8.49l.13-.42a28.69,28.69,0,0,0,1.27-10.17c-1.14-10.89,1.36-21.83.55-32.75a78.4,78.4,0,0,1,1-19.65c.27-1.47.59-3,.71-4.42.26-2.75-.06-5.54.14-8.3.06-1,.19-1.91.31-2.87a137.9,137.9,0,0,0,1.27-17.82c0-1.48-.09-3-.22-4.42a8.26,8.26,0,0,0-.1-1v-.07a1.43,1.43,0,0,0,0-.41,3.26,3.26,0,0,0,1.61-.94,4.05,4.05,0,0,0,.39-2.53c0-2.09.88-4.06,1.59-6a70.23,70.23,0,0,0,2.23-8.31,30.69,30.69,0,0,0,1-6.47v-.15h0v-1a1.7,1.7,0,0,0,.54-.59,3.13,3.13,0,0,0,.28-1.09c.22-1.51.44-3,.65-4.54.16-1.08.31-2.16.47-3.24l1.88-13.12.48-3.41c.16-1.14.33-2.27.49-3.39l.07-.52a5.21,5.21,0,0,1,.09-.69.93.93,0,0,0,.05-.1,4.58,4.58,0,0,0,.59-2.17v-.12C612.59,391.87,611.91,389.76,611.8,387.9ZM596.12,437a13.83,13.83,0,0,1-1.13-3.6h0a5.6,5.6,0,0,1-.06-1v-.52h-.07a2.93,2.93,0,0,0,.1-.78,2.51,2.51,0,0,0-.17-.89c-.19-.43-.51-.79-.7-1.23a3,3,0,0,1-.25-.88,6.68,6.68,0,0,1-.07-.77,44.33,44.33,0,0,1,.75-10.15,3.31,3.31,0,0,1,.1-.59l.12-.65c0-.2.08-.39.11-.59l.17-.11a3,3,0,0,0,.51-.41,5.12,5.12,0,0,0,.76-1.19c.67-1.34,1.28-2.7,1.84-4.09.18-.45.45-1,.9-1.09V409c0,3.29.2,6.62-1.13,9.58a6.16,6.16,0,0,0-.59,1.6,3.56,3.56,0,0,0,0,1c0,.36.1.72.11,1.07a2.53,2.53,0,0,1,0,.55c-.07.45-.26.87-.34,1.32a1.75,1.75,0,0,0,0,.72h0a.94.94,0,0,0,.33.52.75.75,0,0,0,.25.13,3.47,3.47,0,0,1-.06.45,1.08,1.08,0,0,0,0,.26c-.05.49-.07.94-.1,1.23a37.13,37.13,0,0,0-.16,4.35c0,1.57.06,3.13,0,4.73a3.24,3.24,0,0,1-.23,1.34,2.37,2.37,0,0,1-.45.59c-.19-.55-.38-1-.58-1.48Z" transform="translate(-188.92 -131.66)"/><ellipse class="cls-15" cx="547.56" cy="359.15" rx="3.33" ry="9.44" transform="translate(-249.87 -14.43) rotate(-11.58)"/><path class="cls-3" d="M577,558.42a3.54,3.54,0,0,0,1.31,4.1,5.37,5.37,0,0,0,1.7.59,8.92,8.92,0,0,0,2.46.35c1-.06,2-.45,3-.59a.48.48,0,0,1,.35,0,.51.51,0,0,1,.13.41,15.05,15.05,0,0,0,.13,1.77.87.87,0,0,0,.31.67.84.84,0,0,0,.47.08h3.2a31.36,31.36,0,0,0-.91-8.41,2.15,2.15,0,0,0-.24-.59,2,2,0,0,0-1-.59,5.85,5.85,0,0,0-2.48-.43,7.14,7.14,0,0,0-2.78,1.36,4.18,4.18,0,0,1-3.15.76C578.44,557.66,577.55,556.78,577,558.42Z" transform="translate(-188.92 -131.66)"/><path class="cls-15" d="M530,555.82a8.81,8.81,0,0,1-3.23,2.2l-.55.26a.38.38,0,0,0-.18.15.33.33,0,0,0,.06.27,3.84,3.84,0,0,0,4.34,1.58,2.29,2.29,0,0,0,1-.5,3.12,3.12,0,0,0,.73-1.9,3.89,3.89,0,0,0-.09-2.19C531.16,553.84,530.86,554.68,530,555.82Z" transform="translate(-188.92 -131.66)"/><path class="cls-3" d="M542.24,563.11a1.58,1.58,0,0,1-.1.65c-.28.55-1.06.51-1.66.4a39,39,0,0,0-.73-6c-1.14,0-2,1-2.59,2l-1.58,2.51a3.21,3.21,0,0,1-1,1.09,2.61,2.61,0,0,1-1,.33c-3,.51-6.08-.45-9-1.39a4.94,4.94,0,0,1-1.23-.52,2.51,2.51,0,0,1-.59-3.42c1.22-1.66,4-1.18,5.5-2.55a13.88,13.88,0,0,1-.78,2.82c2-.31,3.41-2.18,5-3.43a3.15,3.15,0,0,1,1.45-.69,3.38,3.38,0,0,1,1.18.13,13.91,13.91,0,0,1,5.2,2.56,5.56,5.56,0,0,1,1.86,1.94A14.54,14.54,0,0,1,542.24,563.11Z" transform="translate(-188.92 -131.66)"/><circle class="cls-15" cx="393.98" cy="224.17" r="12.21"/><path class="cls-3" d="M607,428a29,29,0,0,1-1,6.93,71.6,71.6,0,0,1-2.24,8.27c-.7,2-1.58,4-1.57,6a4,4,0,0,1-.4,2.52,3.64,3.64,0,0,1-1.72,1,2.21,2.21,0,0,0-1.46,1.29,9.17,9.17,0,0,1-1.23-2.7q-1.59-4.87-3-9.8a1.27,1.27,0,0,1,.08-1.18A1.48,1.48,0,0,1,595,440a5.33,5.33,0,0,0,1.63-1.06,2.22,2.22,0,0,0,.55-.7,3.21,3.21,0,0,0,.23-1.34c0-1.56,0-3.13,0-4.69a39.17,39.17,0,0,1,.16-4.33c0-.28.06-.74.1-1.22.09-.94.27-2,.77-2.37.75-.5,3,.17,3.85.29,1.47.2,3,.44,4.39.72A12.3,12.3,0,0,1,607,428Z" transform="translate(-188.92 -131.66)"/><path class="cls-3" d="M557.65,369.51c-.47.94-1.61,1.4-2.48,2l-3,2.05a2,2,0,0,1-1.49.51,1.92,1.92,0,0,1-1.1-1V373l-.65-1.06L546,367a2.85,2.85,0,0,1-.55-1.53c0-.25.09-.49.11-.74a3.48,3.48,0,0,0-.59-2c-.23-.45-.71-.81-.69-1.31a4.64,4.64,0,0,1,.33-1.91,3.91,3.91,0,0,1,1.29-1.39c.28-.19.56-.38.86-.56a1.59,1.59,0,0,1,.51-.24c.49-.1,1,.31,1.48.33,2.13,1.42,2.95,4.14,4.63,6.09.95,1.11,1,2,2.11,3a5.75,5.75,0,0,1,.5.49,3.58,3.58,0,0,1,.53.76C556.71,368.42,557.89,369,557.65,369.51Z" transform="translate(-188.92 -131.66)"/><path class="cls-15" d="M578.61,368.08a11,11,0,0,1,1.31,5.95,3.64,3.64,0,0,1-.51,1.57c-.85,1.3-2.64,1.54-4.19,1.62a2.46,2.46,0,0,0-1.82.59,1.65,1.65,0,0,0,.11,2,4.55,4.55,0,0,0,1.81,1.18,16,16,0,0,0,7.78,1.72c1.25-.11,2.45-.47,3.69-.66a39.25,39.25,0,0,1,4.05-.22c1.61-.06,3.21-.22,4.82-.38l4.24-.42a1,1,0,0,0,.63-.23c.32-.37-.09-.91-.48-1.18-2.25-1.67-5.12-2.82-6.4-5.32a32.26,32.26,0,0,1-1.21-3.87,31.94,31.94,0,0,1-1.41-3.73,24.71,24.71,0,0,1-.19-3.44,4.64,4.64,0,0,0-1.18-3.14,4.94,4.94,0,0,0-3.22-1c-2.83-.12-5.84.55-7.84,2.55-.54.53-1,1.18-1.55,1.66s-1.32.63-.95,1.27,1.09,1,1.48,1.59A14.07,14.07,0,0,1,578.61,368.08Z" transform="translate(-188.92 -131.66)"/><path class="cls-3" d="M602.69,385.25a67,67,0,0,1-3.62,13.32,52.3,52.3,0,0,0-2.13,6c-.45,1.84-.36,3.8-.78,5.64-.52,2.29-1,4.58-1.46,6.88a44.62,44.62,0,0,0-.84,10.69,4.5,4.5,0,0,0,.32,1.66c.19.42.51.79.69,1.23a2.9,2.9,0,0,1-.17,2.36,6.87,6.87,0,0,1-1.21,1.85c-5.51,1.64-11.41,1.1-17.15,1.45-5.29.32-10.64,1.41-15.85.5-.6-2.36.39-4.84,1.24-7.14,2.45-6.7,5.16-13.68,4.73-20.69a22.22,22.22,0,0,0-.28-2.44c-.86-5,.08-10.12,1.57-14.95a25.63,25.63,0,0,0,.68-9.33,17.25,17.25,0,0,1,0-3.05,5.31,5.31,0,0,1,1.12-2.85s0-.08.08-.13a.77.77,0,0,1,.44,0h0c.12,0,.24,0,.3,0l.06,0a.17.17,0,0,1,.17,0c.14.09.22.37.51.42a11.79,11.79,0,0,0,1.32.13A6.91,6.91,0,0,1,574,377H574a4.73,4.73,0,0,0,2.3-.19,6.55,6.55,0,0,0,1.41-.55,9,9,0,0,1,1.11-.37c.53-.33.42-1.86.53-2.48a6.79,6.79,0,0,1,.44-1.83,3.13,3.13,0,0,1,2.53-1.47,12.94,12.94,0,0,1,3,.27c2.2.31,4.46.26,6.62.76,1.09.26,2.28.65,3.28.15.27.06.31.3.31.59a4.3,4.3,0,0,1-.16.81c-.38,1.63.9,3.13,2.08,4.32a6.75,6.75,0,0,0,1.75,1.39c.59.27,1.18.38,1.77.68a3.06,3.06,0,0,1,1.18,1.08,4.66,4.66,0,0,1,.68,1.72A10.35,10.35,0,0,1,602.69,385.25Z" transform="translate(-188.92 -131.66)"/><path class="cls-4" d="M602.69,385.25a67,67,0,0,1-3.62,13.32,52.3,52.3,0,0,0-2.13,6c-.45,1.84-.36,3.8-.78,5.64-.52,2.29-1,4.58-1.46,6.88a3.49,3.49,0,0,1-.39.19A8.56,8.56,0,0,1,592,418a14,14,0,0,1-4.33-.14l-8.44-1.13c-3.37-.45-7-1-9.46-3.28a20.29,20.29,0,0,1-3.3-4.51,20,20,0,0,0-.27-2.44c-.86-5,.07-10.12,1.57-14.95a25.37,25.37,0,0,0,.67-9.32,17.38,17.38,0,0,1,0-3.06,5.41,5.41,0,0,1,1.11-2.85,5,5,0,0,1,.53-.12h0c.12,0,.24,0,.36-.05h.17a2.32,2.32,0,0,1,.59.07,10.09,10.09,0,0,1,1.19.46h.07a4.63,4.63,0,0,0,1.57.22c.78,0,1.58-.12,2.36-.17a4.42,4.42,0,0,1,2.78.52,21.15,21.15,0,0,1,1.56,1.43,6.88,6.88,0,0,0,2,1.06,21,21,0,0,0,15.74-.33A3,3,0,0,1,600,379a3.07,3.07,0,0,1,1.13.48c.36.21.71.41,1.07.59a4.48,4.48,0,0,1,.67,1.72A10.32,10.32,0,0,1,602.69,385.25Z" transform="translate(-188.92 -131.66)"/><path class="cls-2" d="M607.84,381.33a31.34,31.34,0,0,1-6.74-2.95,3,3,0,0,0-1.13-.49,3.13,3.13,0,0,0-1.59.4,20.89,20.89,0,0,1-15.73.34,6.76,6.76,0,0,1-2-1.08,19.3,19.3,0,0,0-1.56-1.43c-1.94-1.25-4.63.23-6.81-.59-.39-.17-.78-.32-1.18-.45-1.72-.43-3.47,1.28-5.16.77a28.22,28.22,0,0,0-1.39,5.27,58.67,58.67,0,0,0-.39,6.22c0,1.25-.06,2.49,0,3.74a1.23,1.23,0,0,1,.94,1.93,48.24,48.24,0,0,1-4.37,9.24,19.46,19.46,0,0,1,3.66,2.79c2.07,2.19,3.08,5.25,5.32,7.27,2.52,2.28,6.11,2.83,9.46,3.29l8.43,1.13a14.68,14.68,0,0,0,4.34.14,9.46,9.46,0,0,0,2.31-.75,4.25,4.25,0,0,0,1.29-.85,4.86,4.86,0,0,0,.76-1.18c.67-1.34,1.28-2.7,1.84-4.08.19-.5.49-1.07,1-1.11,3.13-2.83,6.09-5.72,9.22-8.55a21,21,0,0,0,3.37-3.55c1.55-2.3.14-5.56,0-8.33a10.89,10.89,0,0,0-.27-2.12C611,384.35,609.81,381.94,607.84,381.33Z" transform="translate(-188.92 -131.66)"/><path class="cls-4" d="M557.65,369.51c-.47.94-1.61,1.4-2.48,2l-3,2.05a2,2,0,0,1-1.49.51,1.92,1.92,0,0,1-1.1-1v-.43a3.76,3.76,0,0,1,.19-1.41,4.4,4.4,0,0,1,1.32-1.7,10.68,10.68,0,0,1,3.89-2.37,1.32,1.32,0,0,1,.71-.07,1.45,1.45,0,0,1,.26.11,3.4,3.4,0,0,1,.53.77C556.71,368.42,557.89,369,557.65,369.51Z" transform="translate(-188.92 -131.66)"/><path class="cls-2" d="M564.71,375.76a4.31,4.31,0,0,1-2.56-1.47l-2.24-2.12a1.77,1.77,0,0,1-.39-.43,3.24,3.24,0,0,1-.28-.73,8.37,8.37,0,0,0-2.17-3.12,1.44,1.44,0,0,0-.65-.46,1.24,1.24,0,0,0-.71.07,10.88,10.88,0,0,0-3.89,2.36,4.44,4.44,0,0,0-1.32,1.71,3.94,3.94,0,0,0-.19,1.41,10.81,10.81,0,0,0,1,4.54c.1.22.21.44.33.65a20.3,20.3,0,0,0,2.78,3.61l1.4,1.57c1.39,1.55,2.77,3.1,4.27,4.53a5.57,5.57,0,0,0,1.92,1.33,2.11,2.11,0,0,0,2.2-.36,3.11,3.11,0,0,0,.62-1.11,22.11,22.11,0,0,0,1.83-7.38,28.18,28.18,0,0,0-.13-3.05C566.47,376.22,565.71,375.81,564.71,375.76Z" transform="translate(-188.92 -131.66)"/><path class="cls-11" d="M600.53,458.53a135.5,135.5,0,0,1-1.26,17.77c-.12.95-.25,1.9-.32,2.86-.19,2.76.13,5.53-.13,8.27-.14,1.48-.44,3-.7,4.41a77.93,77.93,0,0,0-1,19.59c.82,10.9-1.68,21.8-.55,32.66a26.21,26.21,0,0,1-.35,6.32,27.71,27.71,0,0,1-.91,3.83c-.87,3-1.73,5.92-2.61,8.87a3,3,0,0,1-.59,1.22,2.75,2.75,0,0,1-2.21.66c-3.42-.1-6.63-1.57-9.72-3a3.37,3.37,0,0,1-1-.59c-.64-.67-.59-1.72-.87-2.6a28.34,28.34,0,0,0-1.49-2.62,8.55,8.55,0,0,1-.65-2.68c-.38-3-.64-6.07-.8-9.12-.23-4.29,2.61-8.24,3.55-12.41,1.77-8.21.27-17,3.42-24.8,1-2.45-.45-5.43-.59-8.08a25.44,25.44,0,0,0-.67-5.07c-.59-2.23-1.83-4.32-1.92-6.62a24,24,0,0,1,.75-4.95,22.24,22.24,0,0,0-.1-7.28c-.32-2-.79-4-1.27-5.91l-.11.22a66.94,66.94,0,0,0-3.71,8.72c-.47,1.45-.88,2.92-1.47,4.33-.49,1.18-1.09,2.26-1.67,3.37A97.13,97.13,0,0,0,566.12,498c-.73,2.05-1.38,4.14-2,6.19l-4.38,14.19c-1.18,3.73-2.47,7.34-3.63,11.06-1.64,5.32-3.28,10.6-5.18,15.79-1.78,5-3.89,10-3.25,15.27a11.2,11.2,0,0,1-5.22,1.06,30.46,30.46,0,0,1-8.87-2.15,6.78,6.78,0,0,1-3.06-1.83c-1.32-1.6-1-4-.59-6a13.82,13.82,0,0,1,.7-2.69c.45-1.1,1.19-2.06,1.65-3.13.93-2.07,1-4.41,1.35-6.64s1.18-4.61,3.1-5.82c.32-3.94,1.94-7.83,2.84-11.67.67-2.92.9-5.92,1.43-8.87a19.27,19.27,0,0,1,3.17-8.28,13.16,13.16,0,0,1,1.61-7.09,7.66,7.66,0,0,0,.7-1.51,7.48,7.48,0,0,0,.19-1.56,9.29,9.29,0,0,1,2.5-5.48c-.59-2.16.23-4.41,1-6.5a22.61,22.61,0,0,0,1.24-8.32,7.47,7.47,0,0,1,.11-2.36c.17-.59.49-1.1.68-1.67a9.4,9.4,0,0,0,.27-2.12,24.62,24.62,0,0,1,3-9.07c.86-1.66.13-3.93.31-5.78.31-3.1.65-6.28,2.18-9,.28-.5.59-1,.84-1.51a6.4,6.4,0,0,0,.49-2.37,8.51,8.51,0,0,0-.24-3.73c3.16-2.63,7.48-3.37,11.59-3.54s8.28.19,12.31-.68c1.18-.27,2.36-.64,3.61-.82,2.83-.41,5.7.24,8.5.88a10.24,10.24,0,0,0,1.18,5.12A54.86,54.86,0,0,1,600.53,458.53Z" transform="translate(-188.92 -131.66)"/><path class="cls-4" d="M586.61,459.86l-6.79,15.28c-.32-2-.79-4-1.27-5.91l-.11.21v-.31l3.7-8.15Z" transform="translate(-188.92 -131.66)"/><path class="cls-4" d="M607,428a2.65,2.65,0,0,1-1.35.5,6.86,6.86,0,0,1-2.21-.3l-5.32-1.34a2.16,2.16,0,0,1-.49-.16c.09-.94.27-2,.77-2.37.75-.5,3,.17,3.85.29,1.46.2,2.95.44,4.39.72A11.91,11.91,0,0,1,607,428Z" transform="translate(-188.92 -131.66)"/><path class="cls-2" d="M611.46,392.77c.12.49.28,1,.37,1.47a11.24,11.24,0,0,1-.12,3.66l-.49,3.38-.48,3.4-1.88,13.09L608.4,421l-.65,4.52a3.44,3.44,0,0,1-.28,1.09,2.28,2.28,0,0,1-1.85,1.09,6.6,6.6,0,0,1-2.21-.3l-5.32-1.34a1.62,1.62,0,0,1-.65-.26,1.29,1.29,0,0,1-.35-1.25c.08-.45.27-.87.34-1.32.13-.87-.24-1.77-.11-2.64a6.91,6.91,0,0,1,.59-1.59c1.78-3.92.75-8.5,1.35-12.75a19.45,19.45,0,0,1,4.11-9.14,26,26,0,0,1,4.52-4.44,9.35,9.35,0,0,1,2.55-1.77C611.51,390.69,611.29,392,611.46,392.77Z" transform="translate(-188.92 -131.66)"/><path class="cls-11" d="M571.2,341.85c-.39,1.24.22,2.6-.06,3.87s-1.61,2.36-2,3.76c-.59,2.14,1.22,4.08,2.54,5.86,4.91,6.58,4.27,15.69,2.59,23.73A121.9,121.9,0,0,1,568.69,398a14.42,14.42,0,0,1-3,5.28c2.72-.78,5.61-1.56,8.34-.81,3.45,1,6.43,4.31,9.93,3.55,2.11-.47,3.58-2.37,5.47-3.37,3.55-1.91,7.83-.71,11.78-.1a4.5,4.5,0,0,0,2.57-.13,4.21,4.21,0,0,0,1.56-1.43,14.51,14.51,0,0,0,3-7.86,10.1,10.1,0,0,0-2.9-7.77A16.93,16.93,0,0,1,603,383a7.28,7.28,0,0,1-1-3.58c-.47-6.51,1.11-13.14-.52-19.43-.59-2.24-1.55-4.39-1.81-6.68-.33-2.86.45-5.91-.69-8.53a8.37,8.37,0,0,0-5-4.3,25,25,0,0,0-6.65-1.18C584.12,339,572.55,337.64,571.2,341.85Z" transform="translate(-188.92 -131.66)"/><g class="cls-13"><path d="M574.28,379.07A122,122,0,0,1,568.72,398c.41-.81.75-1.67,1.08-2.51a121.1,121.1,0,0,0,5.58-18.92c1.69-8,2.33-17.14-2.57-23.74-1.19-1.56-2.71-3.27-2.65-5.12a6.27,6.27,0,0,0-1,1.87c-.59,2.13,1.22,4.08,2.54,5.85C576.6,361.92,576,371,574.28,379.07Z" transform="translate(-188.92 -131.66)"/><path d="M571.21,345.12a5.84,5.84,0,0,0,1-2,10.14,10.14,0,0,0-.07-2.64,2.85,2.85,0,0,0-1,1.36C570.85,342.89,571.25,344,571.21,345.12Z" transform="translate(-188.92 -131.66)"/><path d="M606.45,398.38a4.31,4.31,0,0,1-1.57,1.43,4.59,4.59,0,0,1-2.57.13c-3.95-.59-8.27-1.82-11.77.1-1.9,1-3.37,2.9-5.48,3.37-3.5.78-6.48-2.57-9.93-3.55-2.45-.68-5-.12-7.49.59a10.1,10.1,0,0,1-2,2.83c2.72-.78,5.61-1.56,8.34-.81,3.45,1,6.43,4.31,9.93,3.55,2.11-.47,3.58-2.36,5.47-3.37,3.55-1.91,7.83-.71,11.78-.1a4.5,4.5,0,0,0,2.57-.13,4.21,4.21,0,0,0,1.56-1.43,15.75,15.75,0,0,0,2.45-4.68A17.33,17.33,0,0,1,606.45,398.38Z" transform="translate(-188.92 -131.66)"/></g><ellipse class="cls-2" cx="442.93" cy="427.17" rx="23.77" ry="4.02"/><path class="cls-2" d="M641.69,552.25a6.94,6.94,0,0,0,2.26-3.43,3,3,0,0,0-1.58-3.48c-1.46-.55-3,.45-4.19,1.47s-2.53,2.18-4.07,2A6.23,6.23,0,0,0,636,543a2.4,2.4,0,0,0-.53-1.18c-.81-.87-2.27-.5-3.24.18-3.08,2.16-3.93,6.34-4,10.1a19.1,19.1,0,0,1-.06-4.14,4.28,4.28,0,0,0-1.56-3.69,4.65,4.65,0,0,0-2.37-.55c-1.37-.05-2.92.08-3.86,1.09-1.18,1.26-.87,3.37.15,4.73a15.32,15.32,0,0,0,4,3.21,8.85,8.85,0,0,1,2.86,2.72,2.33,2.33,0,0,1,.21.49h8.67A24.56,24.56,0,0,0,641.69,552.25Z" transform="translate(-188.92 -131.66)"/><ellipse class="cls-16" cx="556.72" cy="466.05" rx="26.92" ry="5.59"/><ellipse class="cls-17" cx="545.09" cy="329.64" rx="9.28" ry="8.69"/><path class="cls-18" d="M761,515.46l2.35,3.29s11.28,2.35,7.05,5.88-10.34-3.29-10.34-3.29l-3.29-4.23Z" transform="translate(-188.92 -131.66)"/><path class="cls-16" d="M748.82,478.1s3.06,0,3.76,4.23S754,500.66,754,500.66s9.87,12.92,8.23,14.57-3.53,4.7-4.7,4.23-11.28-14.34-11.28-14.34Z" transform="translate(-188.92 -131.66)"/><path class="cls-18" d="M739.42,466.12s.24,9.16,3.06,9.63,1.88,3.53,1.88,3.53-9.17,5.4-15.28,0l-1.17-2.82s4.23-3.06,2.35-7.29Z" transform="translate(-188.92 -131.66)"/><path class="cls-17" d="M755.17,522.51s13.86,25.85,8.69,33.84-12.92,24.44-14.1,24.44-7.75-3.29-7.28-5.4,7.52-17.86,9.4-19.27.94-5.17.7-5.41-8-12.69-8-12.69.24,19.74-.7,22.8.23,24.91-.94,25.85-6.58,2.58-7.52,1.17-3.76-22.79-1.88-27.73L730,526.27Z" transform="translate(-188.92 -131.66)"/><path class="cls-17" d="M742.48,585.26l5.87,10.81s8.46,6.11,2.59,7-9.4-1.41-9.4-1.41L736.37,598V587.14Z" transform="translate(-188.92 -131.66)"/><path class="cls-17" d="M750.47,579.15l-3.06,7.28s-1.17,3.06,0,3.76,4.47,4.94,2.35,5.41a6.88,6.88,0,0,1-1.29.12,13,13,0,0,1-9.49-3.86l-1.91-1.9s6.53-15,6.44-14.92S750.47,579.15,750.47,579.15Z" transform="translate(-188.92 -131.66)"/><circle class="cls-18" cx="544.62" cy="332.11" r="7.99"/><path class="cls-16" d="M729,474.93l2.46,2.47s7.52,2.82,11.05,0a23.24,23.24,0,0,0-1.29-2.47c0,.23,10.22,1.76,11.16,6s-.71,11.52-.71,11.52,6.58,31,4,31.72-26.79,6.58-26.56,2.11-1.87-22.79-1.87-22.79L719,487.74s1.18-5.17,4-6.82S729,474.93,729,474.93Z" transform="translate(-188.92 -131.66)"/><path class="cls-18" d="M739.42,520.87l3.06,1.88s11.75,8,5.64,9.4-9.64-5.64-9.64-5.64l-2.35-2.82Z" transform="translate(-188.92 -131.66)"/><path class="cls-4" d="M722,486.33l-2.12,2.11s-1.41,19.74,1.41,23.73,15.74,14.81,16.45,14.1S743,522,742,521.57s-13.44-13.52-13.44-13.52l1-18.2Z" transform="translate(-188.92 -131.66)"/><path class="cls-16" d="M721.1,485.62,719,487.74s-1.41,19.73,1.41,23.73,15.74,14.8,16.45,14.1,5.17-4.23,4.23-4.7-13.44-13.53-13.44-13.53l1-18.19Z" transform="translate(-188.92 -131.66)"/><path class="cls-17" d="M736.85,452.42s2.72-1,6.42,1.11l-2,.49s3,.25,3.33,4.2h-1.36s.87,3.46,0,4.44l-.55-1.05-1.61,3.21-.37-1.6-.74.25-.49-2.6s-1.24,1.86-2.22,2v-1.61s-2.72,3.09-3.58,3l1.23-1.73-1.73.37.74-1.24-4.44,1.24,1-1.24-3.09,1-1.48.62s-2.1-4.81.86-8.15S734.08,451,736.85,452.42Z" transform="translate(-188.92 -131.66)"/><rect class="cls-16" x="591.71" y="308.78" width="179.93" height="115.23"/><rect class="cls-19" x="596.85" y="323.23" width="169.64" height="93.96"/><rect class="cls-20" x="591.63" y="308.67" width="179.93" height="7.64"/><circle class="cls-19" cx="597.31" cy="312.58" r="1.42"/><circle class="cls-19" cx="602.69" cy="312.58" r="1.42"/><circle class="cls-19" cx="608.07" cy="312.58" r="1.42"/><rect class="cls-16" x="612.27" y="332.98" width="43.59" height="74.46"/><rect class="cls-20" x="663.38" y="332.98" width="36.32" height="20.5"/><rect class="cls-16" x="663.38" y="359.18" width="36.32" height="22.05"/><rect class="cls-16" x="663.38" y="386.95" width="36.32" height="20.5"/><rect class="cls-16" x="707.49" y="332.98" width="43.59" height="32.45"/><rect class="cls-20" x="707.49" y="374.99" width="43.59" height="32.45"/><polygon class="cls-3" points="681.91 342.25 681.35 342.09 693.76 295.38 765.79 295.38 765.79 295.97 694.22 295.97 681.91 342.25"/><path class="cls-3" d="M960.6,433.52a6.18,6.18,0,1,1,6.18-6.18h0A6.2,6.2,0,0,1,960.6,433.52Zm0-11.77a5.59,5.59,0,1,0,5.59,5.59h0A5.6,5.6,0,0,0,960.6,421.75Z" transform="translate(-188.92 -131.66)"/><circle class="cls-20" cx="771.67" cy="295.68" r="2.35"/><polygon class="cls-3" points="717.76 437.8 645.73 437.8 645.73 437.21 717.3 437.21 729.6 390.94 730.17 391.09 717.76 437.8"/><path class="cls-3" d="M828.77,575.35a6.18,6.18,0,1,1,6.18-6.18h0A6.19,6.19,0,0,1,828.77,575.35Zm0-11.77a5.59,5.59,0,1,0,5.59,5.59h0A5.59,5.59,0,0,0,828.77,563.58Z" transform="translate(-188.92 -131.66)"/><circle class="cls-20" cx="639.85" cy="437.51" r="2.35"/></svg>